<mxfile host="Electron" modified="2024-04-29T22:21:19.705Z" agent="Mozilla/5.0 (Windows NT 10.0; Win64; x64) AppleWebKit/537.36 (KHTML, like Gecko) draw.io/23.1.5 Chrome/120.0.6099.109 Electron/28.1.0 Safari/537.36" etag="bMcUgOD4hK7NZ1A_9sov" version="23.1.5" type="device">
  <diagram name="Page-1" id="D4jjd653WhLHZPP0HxEm">
    <mxGraphModel dx="255" dy="1144" grid="1" gridSize="10" guides="1" tooltips="1" connect="1" arrows="1" fold="1" page="1" pageScale="1" pageWidth="827" pageHeight="1169" math="0" shadow="0">
      <root>
        <mxCell id="0" />
        <mxCell id="1" parent="0" />
        <mxCell id="g6qgAH0g6jWnOgv-mpRu-280" value="Kurzus" style="html=1;dashed=0;whitespace=wrap;shape=mxgraph.dfd.dataStoreID2;align=left;spacingLeft=38;container=1;collapsible=0;flipH=0;" parent="1" vertex="1">
          <mxGeometry x="2480.09" y="850" width="120" height="30" as="geometry" />
        </mxCell>
        <mxCell id="g6qgAH0g6jWnOgv-mpRu-281" value="L2" style="text;html=1;strokeColor=none;fillColor=none;align=center;verticalAlign=middle;whiteSpace=wrap;rounded=0;connectable=0;allowArrows=0;movable=0;resizable=0;rotatable=0;cloneable=0;deletable=0;" parent="g6qgAH0g6jWnOgv-mpRu-280" vertex="1">
          <mxGeometry x="5" width="30" height="30" as="geometry" />
        </mxCell>
        <mxCell id="g6qgAH0g6jWnOgv-mpRu-282" value="" style="html=1;dashed=0;whitespace=wrap;shape=mxgraph.dfd.process;align=center;container=1;collapsible=0;spacingTop=30;" parent="1" vertex="1">
          <mxGeometry x="2140.09" y="610" width="290" height="583.2906" as="geometry" />
        </mxCell>
        <mxCell id="g6qgAH0g6jWnOgv-mpRu-283" value="1" style="text;html=1;strokeColor=none;fillColor=none;align=center;verticalAlign=middle;whiteSpace=wrap;rounded=0;movable=0;resizable=0;rotatable=0;cloneable=0;deletable=0;connectable=0;allowArrows=0;pointerEvents=1;" parent="g6qgAH0g6jWnOgv-mpRu-282" vertex="1">
          <mxGeometry width="35" height="30" as="geometry" />
        </mxCell>
        <mxCell id="g6qgAH0g6jWnOgv-mpRu-284" value="" style="text;html=1;strokeColor=none;fillColor=none;align=left;verticalAlign=middle;whiteSpace=wrap;rounded=0;movable=0;resizable=0;connectable=0;allowArrows=0;rotatable=0;cloneable=0;deletable=0;spacingLeft=6;autosize=1;resizeWidth=0;" parent="g6qgAH0g6jWnOgv-mpRu-282" vertex="1">
          <mxGeometry x="35" y="-5" width="50" height="40" as="geometry" />
        </mxCell>
        <mxCell id="g6qgAH0g6jWnOgv-mpRu-285" value="Kurzus létrehozása" style="html=1;dashed=0;whitespace=wrap;shape=mxgraph.dfd.process2;align=center;container=1;collapsible=0;spacingTop=30;" parent="g6qgAH0g6jWnOgv-mpRu-282" vertex="1">
          <mxGeometry x="65" y="49.99939999999999" width="160" height="73.2906" as="geometry" />
        </mxCell>
        <mxCell id="g6qgAH0g6jWnOgv-mpRu-286" value="1.1" style="text;html=1;strokeColor=none;fillColor=none;align=center;verticalAlign=middle;whiteSpace=wrap;rounded=0;connectable=0;allowArrows=0;editable=1;movable=0;resizable=0;rotatable=0;deletable=0;locked=0;cloneable=0;" parent="g6qgAH0g6jWnOgv-mpRu-285" vertex="1">
          <mxGeometry width="35" height="30" as="geometry" />
        </mxCell>
        <mxCell id="g6qgAH0g6jWnOgv-mpRu-287" value="" style="text;strokeColor=none;fillColor=none;align=left;verticalAlign=middle;whiteSpace=wrap;rounded=0;autosize=1;connectable=0;allowArrows=0;movable=0;resizable=0;rotatable=0;deletable=0;cloneable=0;spacingLeft=6;fontStyle=0;html=1;" parent="g6qgAH0g6jWnOgv-mpRu-285" vertex="1">
          <mxGeometry x="35" y="-5" width="50" height="40" as="geometry" />
        </mxCell>
        <mxCell id="g6qgAH0g6jWnOgv-mpRu-288" value="Kurzus módosítása" style="html=1;dashed=0;whitespace=wrap;shape=mxgraph.dfd.process2;align=center;container=1;collapsible=0;spacingTop=30;" parent="g6qgAH0g6jWnOgv-mpRu-282" vertex="1">
          <mxGeometry x="65" y="150" width="160" height="73.2906" as="geometry" />
        </mxCell>
        <mxCell id="g6qgAH0g6jWnOgv-mpRu-289" value="1.2" style="text;html=1;strokeColor=none;fillColor=none;align=center;verticalAlign=middle;whiteSpace=wrap;rounded=0;connectable=0;allowArrows=0;editable=1;movable=0;resizable=0;rotatable=0;deletable=0;locked=0;cloneable=0;" parent="g6qgAH0g6jWnOgv-mpRu-288" vertex="1">
          <mxGeometry width="35" height="30" as="geometry" />
        </mxCell>
        <mxCell id="g6qgAH0g6jWnOgv-mpRu-290" value="" style="text;strokeColor=none;fillColor=none;align=left;verticalAlign=middle;whiteSpace=wrap;rounded=0;autosize=1;connectable=0;allowArrows=0;movable=0;resizable=0;rotatable=0;deletable=0;cloneable=0;spacingLeft=6;fontStyle=0;html=1;" parent="g6qgAH0g6jWnOgv-mpRu-288" vertex="1">
          <mxGeometry x="35" y="-5" width="50" height="40" as="geometry" />
        </mxCell>
        <mxCell id="g6qgAH0g6jWnOgv-mpRu-291" value="Kurzus törlése" style="html=1;dashed=0;whitespace=wrap;shape=mxgraph.dfd.process2;align=center;container=1;collapsible=0;spacingTop=30;" parent="g6qgAH0g6jWnOgv-mpRu-282" vertex="1">
          <mxGeometry x="65" y="249.99999999999994" width="160" height="73.2906" as="geometry" />
        </mxCell>
        <mxCell id="g6qgAH0g6jWnOgv-mpRu-292" value="1.3" style="text;html=1;strokeColor=none;fillColor=none;align=center;verticalAlign=middle;whiteSpace=wrap;rounded=0;connectable=0;allowArrows=0;editable=1;movable=0;resizable=0;rotatable=0;deletable=0;locked=0;cloneable=0;" parent="g6qgAH0g6jWnOgv-mpRu-291" vertex="1">
          <mxGeometry width="35" height="30" as="geometry" />
        </mxCell>
        <mxCell id="g6qgAH0g6jWnOgv-mpRu-293" value="" style="text;strokeColor=none;fillColor=none;align=left;verticalAlign=middle;whiteSpace=wrap;rounded=0;autosize=1;connectable=0;allowArrows=0;movable=0;resizable=0;rotatable=0;deletable=0;cloneable=0;spacingLeft=6;fontStyle=0;html=1;" parent="g6qgAH0g6jWnOgv-mpRu-291" vertex="1">
          <mxGeometry x="35" y="-5" width="50" height="40" as="geometry" />
        </mxCell>
        <mxCell id="g6qgAH0g6jWnOgv-mpRu-294" value="Kurzus adatainak kiíratása" style="html=1;dashed=0;whitespace=wrap;shape=mxgraph.dfd.process2;align=center;container=1;collapsible=0;spacingTop=30;" parent="g6qgAH0g6jWnOgv-mpRu-282" vertex="1">
          <mxGeometry x="65" y="349.99999999999994" width="160" height="73.2906" as="geometry" />
        </mxCell>
        <mxCell id="g6qgAH0g6jWnOgv-mpRu-295" value="1.4" style="text;html=1;strokeColor=none;fillColor=none;align=center;verticalAlign=middle;whiteSpace=wrap;rounded=0;connectable=0;allowArrows=0;editable=1;movable=0;resizable=0;rotatable=0;deletable=0;locked=0;cloneable=0;" parent="g6qgAH0g6jWnOgv-mpRu-294" vertex="1">
          <mxGeometry width="35" height="30" as="geometry" />
        </mxCell>
        <mxCell id="g6qgAH0g6jWnOgv-mpRu-296" value="" style="text;strokeColor=none;fillColor=none;align=left;verticalAlign=middle;whiteSpace=wrap;rounded=0;autosize=1;connectable=0;allowArrows=0;movable=0;resizable=0;rotatable=0;deletable=0;cloneable=0;spacingLeft=6;fontStyle=0;html=1;" parent="g6qgAH0g6jWnOgv-mpRu-294" vertex="1">
          <mxGeometry x="35" y="-5" width="50" height="40" as="geometry" />
        </mxCell>
        <mxCell id="g6qgAH0g6jWnOgv-mpRu-297" value="Oktató felvétele" style="html=1;dashed=0;whitespace=wrap;shape=mxgraph.dfd.process2;align=center;container=1;collapsible=0;spacingTop=30;" parent="g6qgAH0g6jWnOgv-mpRu-282" vertex="1">
          <mxGeometry x="65" y="450" width="160" height="73.2906" as="geometry" />
        </mxCell>
        <mxCell id="g6qgAH0g6jWnOgv-mpRu-298" value="1.5" style="text;html=1;strokeColor=none;fillColor=none;align=center;verticalAlign=middle;whiteSpace=wrap;rounded=0;connectable=0;allowArrows=0;editable=1;movable=0;resizable=0;rotatable=0;deletable=0;locked=0;cloneable=0;" parent="g6qgAH0g6jWnOgv-mpRu-297" vertex="1">
          <mxGeometry width="35" height="30" as="geometry" />
        </mxCell>
        <mxCell id="g6qgAH0g6jWnOgv-mpRu-299" value="" style="text;strokeColor=none;fillColor=none;align=left;verticalAlign=middle;whiteSpace=wrap;rounded=0;autosize=1;connectable=0;allowArrows=0;movable=0;resizable=0;rotatable=0;deletable=0;cloneable=0;spacingLeft=6;fontStyle=0;html=1;" parent="g6qgAH0g6jWnOgv-mpRu-297" vertex="1">
          <mxGeometry x="35" y="-5" width="50" height="40" as="geometry" />
        </mxCell>
        <mxCell id="g6qgAH0g6jWnOgv-mpRu-300" value="Kurzust oktat" style="html=1;dashed=0;whitespace=wrap;shape=mxgraph.dfd.dataStoreID;align=left;spacingLeft=33;container=1;collapsible=0;autosize=0;flipH=0;" parent="1" vertex="1">
          <mxGeometry x="2480.09" y="1060" width="120" height="30" as="geometry" />
        </mxCell>
        <mxCell id="g6qgAH0g6jWnOgv-mpRu-301" value="L1" style="text;html=1;strokeColor=none;fillColor=none;align=center;verticalAlign=middle;whiteSpace=wrap;rounded=0;movable=0;resizable=0;rotatable=0;cloneable=0;deletable=0;allowArrows=0;connectable=0;" parent="g6qgAH0g6jWnOgv-mpRu-300" vertex="1">
          <mxGeometry width="30" height="30" as="geometry" />
        </mxCell>
        <mxCell id="g6qgAH0g6jWnOgv-mpRu-302" value="" style="endArrow=classic;startArrow=none;html=1;rounded=0;verticalAlign=bottom;entryX=-0.002;entryY=0.392;entryDx=0;entryDy=0;entryPerimeter=0;startFill=0;" parent="1" source="g6qgAH0g6jWnOgv-mpRu-297" target="g6qgAH0g6jWnOgv-mpRu-300" edge="1">
          <mxGeometry width="50" height="50" relative="1" as="geometry">
            <mxPoint x="1880.09" y="920" as="sourcePoint" />
            <mxPoint x="2440.09" y="740" as="targetPoint" />
          </mxGeometry>
        </mxCell>
        <mxCell id="g6qgAH0g6jWnOgv-mpRu-303" value="Admin" style="shape=stencil(tZRtjoMgEIZPw98GJR6gYXfvQe10nZQCAbYft99RNKlW7GajiTGZeeXhnZGBCRka5YCVvGHig5VlwTm9Kb5NYhUc1DElr8qjOmhISojenuGGx9gz0DTgMbaq+GR8T9+0j5C1NYYgaE0YKU86wRQaWsvvCdZv/xhFjvgXiOB7kynLyq+/Y3fVNuBiI79j7OB+db/rgceOi61+3Grg4v9YISmTO9xCHlR9/vb2xxxnzYDW6AK8OfLTeZzO66ynzM5CnqyHBUsn1DqN9UITnWoH/kUY5Iu9PtVUzRY1jx4IGk22K9UioSs+44+uvFxl3bKX1nTZdE12iV8=);whiteSpace=wrap;html=1;" parent="1" vertex="1">
          <mxGeometry x="1840.09" y="850" width="120" height="80" as="geometry" />
        </mxCell>
        <mxCell id="g6qgAH0g6jWnOgv-mpRu-304" value="" style="endArrow=none;startArrow=classic;html=1;rounded=0;verticalAlign=bottom;entryX=0.55;entryY=1.123;entryDx=0;entryDy=0;entryPerimeter=0;endFill=0;" parent="1" source="g6qgAH0g6jWnOgv-mpRu-294" target="g6qgAH0g6jWnOgv-mpRu-280" edge="1">
          <mxGeometry width="50" height="50" relative="1" as="geometry">
            <mxPoint x="2290.09" y="840" as="sourcePoint" />
            <mxPoint x="2200.09" y="1100" as="targetPoint" />
          </mxGeometry>
        </mxCell>
        <mxCell id="g6qgAH0g6jWnOgv-mpRu-305" value="" style="endArrow=classic;html=1;rounded=0;verticalAlign=bottom;exitX=1.005;exitY=0.576;exitDx=0;exitDy=0;exitPerimeter=0;" parent="1" source="g6qgAH0g6jWnOgv-mpRu-291" target="g6qgAH0g6jWnOgv-mpRu-280" edge="1">
          <mxGeometry width="50" height="50" relative="1" as="geometry">
            <mxPoint x="2000.09" y="1040" as="sourcePoint" />
            <mxPoint x="2120.09" y="1040" as="targetPoint" />
          </mxGeometry>
        </mxCell>
        <mxCell id="g6qgAH0g6jWnOgv-mpRu-306" value="" style="endArrow=classic;html=1;rounded=0;verticalAlign=bottom;exitX=1.005;exitY=0.619;exitDx=0;exitDy=0;exitPerimeter=0;entryX=-0.025;entryY=0;entryDx=0;entryDy=0;entryPerimeter=0;" parent="1" source="g6qgAH0g6jWnOgv-mpRu-288" target="g6qgAH0g6jWnOgv-mpRu-280" edge="1">
          <mxGeometry width="50" height="50" relative="1" as="geometry">
            <mxPoint x="2000.09" y="1040" as="sourcePoint" />
            <mxPoint x="2120.09" y="1040" as="targetPoint" />
          </mxGeometry>
        </mxCell>
        <mxCell id="g6qgAH0g6jWnOgv-mpRu-307" value="" style="endArrow=classic;html=1;rounded=0;verticalAlign=bottom;exitX=1.021;exitY=0.582;exitDx=0;exitDy=0;exitPerimeter=0;" parent="1" source="g6qgAH0g6jWnOgv-mpRu-285" target="g6qgAH0g6jWnOgv-mpRu-280" edge="1">
          <mxGeometry width="50" height="50" relative="1" as="geometry">
            <mxPoint x="2000.09" y="830" as="sourcePoint" />
            <mxPoint x="2120.09" y="830" as="targetPoint" />
          </mxGeometry>
        </mxCell>
        <mxCell id="g6qgAH0g6jWnOgv-mpRu-308" value="kurzus adatai" style="endArrow=none;html=1;rounded=0;verticalAlign=bottom;edgeStyle=orthogonalEdgeStyle;startArrow=classic;startFill=1;exitX=0.005;exitY=0.645;exitDx=0;exitDy=0;exitPerimeter=0;endFill=0;" parent="1" source="g6qgAH0g6jWnOgv-mpRu-291" target="g6qgAH0g6jWnOgv-mpRu-303" edge="1">
          <mxGeometry x="0.4304" width="50" height="50" relative="1" as="geometry">
            <mxPoint x="1681.5185714285715" y="1080" as="sourcePoint" />
            <mxPoint x="2140.09" y="840" as="targetPoint" />
            <Array as="points">
              <mxPoint x="2030.09" y="907" />
              <mxPoint x="2030.09" y="907" />
            </Array>
            <mxPoint as="offset" />
          </mxGeometry>
        </mxCell>
        <mxCell id="g6qgAH0g6jWnOgv-mpRu-309" value="Kurzus információk" style="endArrow=classic;html=1;rounded=0;verticalAlign=bottom;edgeStyle=orthogonalEdgeStyle;exitX=0;exitY=0.579;exitDx=0;exitDy=0;exitPerimeter=0;" parent="1" source="g6qgAH0g6jWnOgv-mpRu-294" target="g6qgAH0g6jWnOgv-mpRu-303" edge="1">
          <mxGeometry x="-0.0171" width="50" height="50" relative="1" as="geometry">
            <mxPoint x="2060.09" y="960" as="sourcePoint" />
            <mxPoint x="1689.8100000000002" y="1080.72" as="targetPoint" />
            <Array as="points">
              <mxPoint x="2205.09" y="1010" />
              <mxPoint x="1900.09" y="1010" />
            </Array>
            <mxPoint as="offset" />
          </mxGeometry>
        </mxCell>
        <mxCell id="g6qgAH0g6jWnOgv-mpRu-310" value="kurzus adatai" style="endArrow=none;html=1;rounded=0;verticalAlign=bottom;edgeStyle=orthogonalEdgeStyle;startArrow=classic;startFill=1;exitX=-0.016;exitY=0.573;exitDx=0;exitDy=0;exitPerimeter=0;endFill=0;" parent="1" source="g6qgAH0g6jWnOgv-mpRu-288" target="g6qgAH0g6jWnOgv-mpRu-303" edge="1">
          <mxGeometry x="-0.0157" width="50" height="50" relative="1" as="geometry">
            <mxPoint x="2216.09" y="917" as="sourcePoint" />
            <mxPoint x="1970.09" y="917" as="targetPoint" />
            <Array as="points" />
            <mxPoint as="offset" />
          </mxGeometry>
        </mxCell>
        <mxCell id="g6qgAH0g6jWnOgv-mpRu-311" value="kurzus adatai" style="endArrow=none;html=1;rounded=0;verticalAlign=bottom;edgeStyle=orthogonalEdgeStyle;startArrow=classic;startFill=1;exitX=-0.005;exitY=0.685;exitDx=0;exitDy=0;exitPerimeter=0;endFill=0;" parent="1" source="g6qgAH0g6jWnOgv-mpRu-285" target="g6qgAH0g6jWnOgv-mpRu-303" edge="1">
          <mxGeometry x="-0.2152" width="50" height="50" relative="1" as="geometry">
            <mxPoint x="2226.09" y="927" as="sourcePoint" />
            <mxPoint x="1980.09" y="927" as="targetPoint" />
            <Array as="points">
              <mxPoint x="1870.09" y="710" />
            </Array>
            <mxPoint x="-1" as="offset" />
          </mxGeometry>
        </mxCell>
        <mxCell id="g6qgAH0g6jWnOgv-mpRu-312" value="Felhasználó Kód, Kurzus Kód" style="endArrow=classic;html=1;rounded=0;verticalAlign=bottom;edgeStyle=orthogonalEdgeStyle;entryX=-0.005;entryY=0.674;entryDx=0;entryDy=0;entryPerimeter=0;" parent="1" source="g6qgAH0g6jWnOgv-mpRu-303" target="g6qgAH0g6jWnOgv-mpRu-297" edge="1">
          <mxGeometry x="0.1978" y="1" width="50" height="50" relative="1" as="geometry">
            <mxPoint x="2190.09" y="1050" as="sourcePoint" />
            <mxPoint x="2310.09" y="1050" as="targetPoint" />
            <Array as="points">
              <mxPoint x="1870.09" y="1110" />
              <mxPoint x="2082.09" y="1110" />
            </Array>
            <mxPoint as="offset" />
          </mxGeometry>
        </mxCell>
        <mxCell id="g6qgAH0g6jWnOgv-mpRu-313" value="" style="endArrow=classic;html=1;rounded=0;verticalAlign=bottom;exitX=0.361;exitY=0.004;exitDx=0;exitDy=0;exitPerimeter=0;entryX=0.995;entryY=0.55;entryDx=0;entryDy=0;entryPerimeter=0;" parent="1" source="g6qgAH0g6jWnOgv-mpRu-300" target="g6qgAH0g6jWnOgv-mpRu-294" edge="1">
          <mxGeometry width="50" height="50" relative="1" as="geometry">
            <mxPoint x="2120.09" y="1040" as="sourcePoint" />
            <mxPoint x="2240.09" y="1040" as="targetPoint" />
          </mxGeometry>
        </mxCell>
        <mxCell id="g6qgAH0g6jWnOgv-mpRu-314" value="Tantárgy" style="html=1;dashed=0;whitespace=wrap;shape=mxgraph.dfd.dataStoreID2;align=left;spacingLeft=38;container=1;collapsible=0;flipH=0;" parent="1" vertex="1">
          <mxGeometry x="2490" y="1470" width="120" height="30" as="geometry" />
        </mxCell>
        <mxCell id="g6qgAH0g6jWnOgv-mpRu-315" value="L2" style="text;html=1;strokeColor=none;fillColor=none;align=center;verticalAlign=middle;whiteSpace=wrap;rounded=0;connectable=0;allowArrows=0;movable=0;resizable=0;rotatable=0;cloneable=0;deletable=0;" parent="g6qgAH0g6jWnOgv-mpRu-314" vertex="1">
          <mxGeometry x="5" width="30" height="30" as="geometry" />
        </mxCell>
        <mxCell id="g6qgAH0g6jWnOgv-mpRu-316" value="" style="html=1;dashed=0;whitespace=wrap;shape=mxgraph.dfd.process;align=center;container=1;collapsible=0;spacingTop=30;" parent="1" vertex="1">
          <mxGeometry x="2145.09" y="1240" width="285" height="730" as="geometry" />
        </mxCell>
        <mxCell id="g6qgAH0g6jWnOgv-mpRu-317" value="2" style="text;html=1;strokeColor=none;fillColor=none;align=center;verticalAlign=middle;whiteSpace=wrap;rounded=0;movable=0;resizable=0;rotatable=0;cloneable=0;deletable=0;connectable=0;allowArrows=0;pointerEvents=1;" parent="g6qgAH0g6jWnOgv-mpRu-316" vertex="1">
          <mxGeometry width="35" height="30" as="geometry" />
        </mxCell>
        <mxCell id="g6qgAH0g6jWnOgv-mpRu-318" value="" style="text;html=1;strokeColor=none;fillColor=none;align=left;verticalAlign=middle;whiteSpace=wrap;rounded=0;movable=0;resizable=0;connectable=0;allowArrows=0;rotatable=0;cloneable=0;deletable=0;spacingLeft=6;autosize=1;resizeWidth=0;" parent="g6qgAH0g6jWnOgv-mpRu-316" vertex="1">
          <mxGeometry x="35" y="-5" width="50" height="40" as="geometry" />
        </mxCell>
        <mxCell id="g6qgAH0g6jWnOgv-mpRu-319" value="Tárgy létrehozása" style="html=1;dashed=0;whitespace=wrap;shape=mxgraph.dfd.process2;align=center;container=1;collapsible=0;spacingTop=30;" parent="g6qgAH0g6jWnOgv-mpRu-316" vertex="1">
          <mxGeometry x="63.8793103448276" y="60.13493506493506" width="157.24137931034483" height="63.11181818181817" as="geometry" />
        </mxCell>
        <mxCell id="g6qgAH0g6jWnOgv-mpRu-320" value="2.1" style="text;html=1;strokeColor=none;fillColor=none;align=center;verticalAlign=middle;whiteSpace=wrap;rounded=0;connectable=0;allowArrows=0;editable=1;movable=0;resizable=0;rotatable=0;deletable=0;locked=0;cloneable=0;" parent="g6qgAH0g6jWnOgv-mpRu-319" vertex="1">
          <mxGeometry width="35" height="30" as="geometry" />
        </mxCell>
        <mxCell id="g6qgAH0g6jWnOgv-mpRu-321" value="" style="text;strokeColor=none;fillColor=none;align=left;verticalAlign=middle;whiteSpace=wrap;rounded=0;autosize=1;connectable=0;allowArrows=0;movable=0;resizable=0;rotatable=0;deletable=0;cloneable=0;spacingLeft=6;fontStyle=0;html=1;" parent="g6qgAH0g6jWnOgv-mpRu-319" vertex="1">
          <mxGeometry x="35" y="-5" width="50" height="40" as="geometry" />
        </mxCell>
        <mxCell id="g6qgAH0g6jWnOgv-mpRu-322" value="Tárgy módosítása" style="html=1;dashed=0;whitespace=wrap;shape=mxgraph.dfd.process2;align=center;container=1;collapsible=0;spacingTop=30;" parent="g6qgAH0g6jWnOgv-mpRu-316" vertex="1">
          <mxGeometry x="63.8793103448276" y="132.72727272727272" width="157.24137931034483" height="66.07922077922078" as="geometry" />
        </mxCell>
        <mxCell id="g6qgAH0g6jWnOgv-mpRu-323" value="2.2" style="text;html=1;strokeColor=none;fillColor=none;align=center;verticalAlign=middle;whiteSpace=wrap;rounded=0;connectable=0;allowArrows=0;editable=1;movable=0;resizable=0;rotatable=0;deletable=0;locked=0;cloneable=0;" parent="g6qgAH0g6jWnOgv-mpRu-322" vertex="1">
          <mxGeometry width="35" height="30" as="geometry" />
        </mxCell>
        <mxCell id="g6qgAH0g6jWnOgv-mpRu-324" value="" style="text;strokeColor=none;fillColor=none;align=left;verticalAlign=middle;whiteSpace=wrap;rounded=0;autosize=1;connectable=0;allowArrows=0;movable=0;resizable=0;rotatable=0;deletable=0;cloneable=0;spacingLeft=6;fontStyle=0;html=1;" parent="g6qgAH0g6jWnOgv-mpRu-322" vertex="1">
          <mxGeometry x="35" y="-5" width="50" height="40" as="geometry" />
        </mxCell>
        <mxCell id="g6qgAH0g6jWnOgv-mpRu-325" value="Tárgy törlése" style="html=1;dashed=0;whitespace=wrap;shape=mxgraph.dfd.process2;align=center;container=1;collapsible=0;spacingTop=30;" parent="g6qgAH0g6jWnOgv-mpRu-316" vertex="1">
          <mxGeometry x="63.8793103448276" y="207.2346753246753" width="157.24137931034483" height="69.04662337662337" as="geometry" />
        </mxCell>
        <mxCell id="g6qgAH0g6jWnOgv-mpRu-326" value="2.3" style="text;html=1;strokeColor=none;fillColor=none;align=center;verticalAlign=middle;whiteSpace=wrap;rounded=0;connectable=0;allowArrows=0;editable=1;movable=0;resizable=0;rotatable=0;deletable=0;locked=0;cloneable=0;" parent="g6qgAH0g6jWnOgv-mpRu-325" vertex="1">
          <mxGeometry width="35" height="30" as="geometry" />
        </mxCell>
        <mxCell id="g6qgAH0g6jWnOgv-mpRu-327" value="" style="text;strokeColor=none;fillColor=none;align=left;verticalAlign=middle;whiteSpace=wrap;rounded=0;autosize=1;connectable=0;allowArrows=0;movable=0;resizable=0;rotatable=0;deletable=0;cloneable=0;spacingLeft=6;fontStyle=0;html=1;" parent="g6qgAH0g6jWnOgv-mpRu-325" vertex="1">
          <mxGeometry x="35" y="-5" width="50" height="40" as="geometry" />
        </mxCell>
        <mxCell id="g6qgAH0g6jWnOgv-mpRu-340" value="Szak létrehozása" style="html=1;dashed=0;whitespace=wrap;shape=mxgraph.dfd.process2;align=center;container=1;collapsible=0;spacingTop=30;" parent="g6qgAH0g6jWnOgv-mpRu-316" vertex="1">
          <mxGeometry x="63.8793103448276" y="316.9720625427205" width="157.24137931034483" height="66.36363636363636" as="geometry" />
        </mxCell>
        <mxCell id="g6qgAH0g6jWnOgv-mpRu-341" value="2.8" style="text;html=1;strokeColor=none;fillColor=none;align=center;verticalAlign=middle;whiteSpace=wrap;rounded=0;connectable=0;allowArrows=0;editable=1;movable=0;resizable=0;rotatable=0;deletable=0;locked=0;cloneable=0;" parent="g6qgAH0g6jWnOgv-mpRu-340" vertex="1">
          <mxGeometry width="35" height="30" as="geometry" />
        </mxCell>
        <mxCell id="g6qgAH0g6jWnOgv-mpRu-342" value="" style="text;strokeColor=none;fillColor=none;align=left;verticalAlign=middle;whiteSpace=wrap;rounded=0;autosize=1;connectable=0;allowArrows=0;movable=0;resizable=0;rotatable=0;deletable=0;cloneable=0;spacingLeft=6;fontStyle=0;html=1;" parent="g6qgAH0g6jWnOgv-mpRu-340" vertex="1">
          <mxGeometry x="35" y="-5" width="50" height="40" as="geometry" />
        </mxCell>
        <mxCell id="g6qgAH0g6jWnOgv-mpRu-344" value="Admin" style="shape=stencil(tZRtjoMgEIZPw98GJR6gYXfvQe10nZQCAbYft99RNKlW7GajiTGZeeXhnZGBCRka5YCVvGHig5VlwTm9Kb5NYhUc1DElr8qjOmhISojenuGGx9gz0DTgMbaq+GR8T9+0j5C1NYYgaE0YKU86wRQaWsvvCdZv/xhFjvgXiOB7kynLyq+/Y3fVNuBiI79j7OB+db/rgceOi61+3Grg4v9YISmTO9xCHlR9/vb2xxxnzYDW6AK8OfLTeZzO66ynzM5CnqyHBUsn1DqN9UITnWoH/kUY5Iu9PtVUzRY1jx4IGk22K9UioSs+44+uvFxl3bKX1nTZdE12iV8=);whiteSpace=wrap;html=1;" parent="1" vertex="1">
          <mxGeometry x="1849.9999999999998" y="1470" width="120" height="80" as="geometry" />
        </mxCell>
        <mxCell id="g6qgAH0g6jWnOgv-mpRu-345" value="" style="endArrow=none;startArrow=classic;html=1;rounded=0;verticalAlign=bottom;endFill=0;" parent="1" edge="1">
          <mxGeometry width="50" height="50" relative="1" as="geometry">
            <mxPoint x="2375" y="1562.1754010695186" as="sourcePoint" />
            <mxPoint x="2550" y="1500" as="targetPoint" />
          </mxGeometry>
        </mxCell>
        <mxCell id="g6qgAH0g6jWnOgv-mpRu-346" value="" style="endArrow=classic;html=1;rounded=0;verticalAlign=bottom;exitX=1.005;exitY=0.576;exitDx=0;exitDy=0;exitPerimeter=0;" parent="1" source="g6qgAH0g6jWnOgv-mpRu-325" target="g6qgAH0g6jWnOgv-mpRu-314" edge="1">
          <mxGeometry width="50" height="50" relative="1" as="geometry">
            <mxPoint x="2009.9999999999998" y="1660" as="sourcePoint" />
            <mxPoint x="2130" y="1660" as="targetPoint" />
          </mxGeometry>
        </mxCell>
        <mxCell id="g6qgAH0g6jWnOgv-mpRu-347" value="" style="endArrow=classic;html=1;rounded=0;verticalAlign=bottom;exitX=1.005;exitY=0.619;exitDx=0;exitDy=0;exitPerimeter=0;entryX=-0.025;entryY=0;entryDx=0;entryDy=0;entryPerimeter=0;" parent="1" source="g6qgAH0g6jWnOgv-mpRu-322" target="g6qgAH0g6jWnOgv-mpRu-314" edge="1">
          <mxGeometry width="50" height="50" relative="1" as="geometry">
            <mxPoint x="2009.9999999999998" y="1660" as="sourcePoint" />
            <mxPoint x="2130" y="1660" as="targetPoint" />
          </mxGeometry>
        </mxCell>
        <mxCell id="g6qgAH0g6jWnOgv-mpRu-348" value="" style="endArrow=classic;html=1;rounded=0;verticalAlign=bottom;exitX=1.021;exitY=0.582;exitDx=0;exitDy=0;exitPerimeter=0;" parent="1" source="g6qgAH0g6jWnOgv-mpRu-319" target="g6qgAH0g6jWnOgv-mpRu-314" edge="1">
          <mxGeometry width="50" height="50" relative="1" as="geometry">
            <mxPoint x="2009.9999999999998" y="1450" as="sourcePoint" />
            <mxPoint x="2130" y="1450" as="targetPoint" />
          </mxGeometry>
        </mxCell>
        <mxCell id="g6qgAH0g6jWnOgv-mpRu-349" value="tárgy adatai" style="endArrow=none;html=1;rounded=0;verticalAlign=bottom;edgeStyle=orthogonalEdgeStyle;startArrow=classic;startFill=1;endFill=0;" parent="1" source="g6qgAH0g6jWnOgv-mpRu-325" target="g6qgAH0g6jWnOgv-mpRu-344" edge="1">
          <mxGeometry x="0.4304" width="50" height="50" relative="1" as="geometry">
            <mxPoint x="1691.4285714285713" y="1700" as="sourcePoint" />
            <mxPoint x="2150" y="1460" as="targetPoint" />
            <Array as="points">
              <mxPoint x="2060" y="1505" />
              <mxPoint x="2060" y="1505" />
            </Array>
            <mxPoint as="offset" />
          </mxGeometry>
        </mxCell>
        <mxCell id="g6qgAH0g6jWnOgv-mpRu-351" value="tárgy adatai" style="endArrow=none;html=1;rounded=0;verticalAlign=bottom;edgeStyle=orthogonalEdgeStyle;startArrow=classic;startFill=1;entryX=0.747;entryY=0.074;entryDx=0;entryDy=0;entryPerimeter=0;endFill=0;" parent="1" source="g6qgAH0g6jWnOgv-mpRu-322" target="g6qgAH0g6jWnOgv-mpRu-344" edge="1">
          <mxGeometry x="-0.0176" width="50" height="50" relative="1" as="geometry">
            <mxPoint x="2226" y="1537" as="sourcePoint" />
            <mxPoint x="1979.9999999999998" y="1537" as="targetPoint" />
            <Array as="points">
              <mxPoint x="1940.09" y="1410" />
            </Array>
            <mxPoint as="offset" />
          </mxGeometry>
        </mxCell>
        <mxCell id="g6qgAH0g6jWnOgv-mpRu-352" value="tárgy&amp;nbsp; adatai" style="endArrow=none;html=1;rounded=0;verticalAlign=bottom;edgeStyle=orthogonalEdgeStyle;startArrow=classic;startFill=1;endFill=0;" parent="1" source="g6qgAH0g6jWnOgv-mpRu-319" target="g6qgAH0g6jWnOgv-mpRu-344" edge="1">
          <mxGeometry x="-0.2152" width="50" height="50" relative="1" as="geometry">
            <mxPoint x="2236" y="1547" as="sourcePoint" />
            <mxPoint x="1989.9999999999998" y="1547" as="targetPoint" />
            <Array as="points">
              <mxPoint x="1910.09" y="1339" />
            </Array>
            <mxPoint x="-1" as="offset" />
          </mxGeometry>
        </mxCell>
        <mxCell id="g6qgAH0g6jWnOgv-mpRu-364" value="Szak" style="html=1;dashed=0;whitespace=wrap;shape=mxgraph.dfd.dataStoreID2;align=left;spacingLeft=38;container=1;collapsible=0;" parent="1" vertex="1">
          <mxGeometry x="2485.09" y="1610" width="120" height="30" as="geometry" />
        </mxCell>
        <mxCell id="g6qgAH0g6jWnOgv-mpRu-365" value="L3" style="text;html=1;strokeColor=none;fillColor=none;align=center;verticalAlign=middle;whiteSpace=wrap;rounded=0;connectable=0;allowArrows=0;movable=0;resizable=0;rotatable=0;cloneable=0;deletable=0;" parent="g6qgAH0g6jWnOgv-mpRu-364" vertex="1">
          <mxGeometry x="5" width="30" height="30" as="geometry" />
        </mxCell>
        <mxCell id="g6qgAH0g6jWnOgv-mpRu-366" value="" style="endArrow=classic;html=1;rounded=0;verticalAlign=bottom;" parent="1" source="g6qgAH0g6jWnOgv-mpRu-340" target="g6qgAH0g6jWnOgv-mpRu-364" edge="1">
          <mxGeometry width="50" height="50" relative="1" as="geometry">
            <mxPoint x="2270" y="1810" as="sourcePoint" />
            <mxPoint x="2390" y="1810" as="targetPoint" />
          </mxGeometry>
        </mxCell>
        <mxCell id="g6qgAH0g6jWnOgv-mpRu-367" value="Szak adatai&amp;nbsp;" style="endArrow=classic;html=1;rounded=0;verticalAlign=bottom;edgeStyle=orthogonalEdgeStyle;" parent="1" source="g6qgAH0g6jWnOgv-mpRu-344" target="g6qgAH0g6jWnOgv-mpRu-340" edge="1">
          <mxGeometry width="50" height="50" relative="1" as="geometry">
            <mxPoint x="2270" y="1600" as="sourcePoint" />
            <mxPoint x="2390" y="1600" as="targetPoint" />
            <Array as="points">
              <mxPoint x="1830.09" y="1510" />
              <mxPoint x="1830.09" y="1620" />
            </Array>
          </mxGeometry>
        </mxCell>
        <mxCell id="g6qgAH0g6jWnOgv-mpRu-368" value="Terem" style="html=1;dashed=0;whitespace=wrap;shape=mxgraph.dfd.dataStoreID2;align=left;spacingLeft=38;container=1;collapsible=0;flipH=0;" parent="1" vertex="1">
          <mxGeometry x="2430.09" y="2315" width="120" height="30" as="geometry" />
        </mxCell>
        <mxCell id="g6qgAH0g6jWnOgv-mpRu-369" value="L6" style="text;html=1;strokeColor=none;fillColor=none;align=center;verticalAlign=middle;whiteSpace=wrap;rounded=0;connectable=0;allowArrows=0;movable=0;resizable=0;rotatable=0;cloneable=0;deletable=0;" parent="g6qgAH0g6jWnOgv-mpRu-368" vertex="1">
          <mxGeometry x="5" width="30" height="30" as="geometry" />
        </mxCell>
        <mxCell id="g6qgAH0g6jWnOgv-mpRu-370" value="" style="html=1;dashed=0;whitespace=wrap;shape=mxgraph.dfd.process;align=center;container=1;collapsible=0;spacingTop=30;" parent="1" vertex="1">
          <mxGeometry x="2090.09" y="2075" width="290" height="460" as="geometry" />
        </mxCell>
        <mxCell id="g6qgAH0g6jWnOgv-mpRu-371" value="3" style="text;html=1;strokeColor=none;fillColor=none;align=center;verticalAlign=middle;whiteSpace=wrap;rounded=0;movable=0;resizable=0;rotatable=0;cloneable=0;deletable=0;connectable=0;allowArrows=0;pointerEvents=1;" parent="g6qgAH0g6jWnOgv-mpRu-370" vertex="1">
          <mxGeometry width="35" height="30" as="geometry" />
        </mxCell>
        <mxCell id="g6qgAH0g6jWnOgv-mpRu-372" value="" style="text;html=1;strokeColor=none;fillColor=none;align=left;verticalAlign=middle;whiteSpace=wrap;rounded=0;movable=0;resizable=0;connectable=0;allowArrows=0;rotatable=0;cloneable=0;deletable=0;spacingLeft=6;autosize=1;resizeWidth=0;" parent="g6qgAH0g6jWnOgv-mpRu-370" vertex="1">
          <mxGeometry x="35" y="-5" width="50" height="40" as="geometry" />
        </mxCell>
        <mxCell id="g6qgAH0g6jWnOgv-mpRu-373" value="Terem létrehozása" style="html=1;dashed=0;whitespace=wrap;shape=mxgraph.dfd.process2;align=center;container=1;collapsible=0;spacingTop=30;" parent="g6qgAH0g6jWnOgv-mpRu-370" vertex="1">
          <mxGeometry x="65" y="39.430986887153665" width="160" height="57.79910734032058" as="geometry" />
        </mxCell>
        <mxCell id="g6qgAH0g6jWnOgv-mpRu-374" value="3.1" style="text;html=1;strokeColor=none;fillColor=none;align=center;verticalAlign=middle;whiteSpace=wrap;rounded=0;connectable=0;allowArrows=0;editable=1;movable=0;resizable=0;rotatable=0;deletable=0;locked=0;cloneable=0;" parent="g6qgAH0g6jWnOgv-mpRu-373" vertex="1">
          <mxGeometry width="35" height="30" as="geometry" />
        </mxCell>
        <mxCell id="g6qgAH0g6jWnOgv-mpRu-375" value="" style="text;strokeColor=none;fillColor=none;align=left;verticalAlign=middle;whiteSpace=wrap;rounded=0;autosize=1;connectable=0;allowArrows=0;movable=0;resizable=0;rotatable=0;deletable=0;cloneable=0;spacingLeft=6;fontStyle=0;html=1;" parent="g6qgAH0g6jWnOgv-mpRu-373" vertex="1">
          <mxGeometry x="35" y="-5" width="50" height="40" as="geometry" />
        </mxCell>
        <mxCell id="g6qgAH0g6jWnOgv-mpRu-376" value="Terem módosítása" style="html=1;dashed=0;whitespace=wrap;shape=mxgraph.dfd.process2;align=center;container=1;collapsible=0;spacingTop=30;" parent="g6qgAH0g6jWnOgv-mpRu-370" vertex="1">
          <mxGeometry x="65" y="150.00438019402335" width="160" height="57.79910734032058" as="geometry" />
        </mxCell>
        <mxCell id="g6qgAH0g6jWnOgv-mpRu-377" value="3.2" style="text;html=1;strokeColor=none;fillColor=none;align=center;verticalAlign=middle;whiteSpace=wrap;rounded=0;connectable=0;allowArrows=0;editable=1;movable=0;resizable=0;rotatable=0;deletable=0;locked=0;cloneable=0;" parent="g6qgAH0g6jWnOgv-mpRu-376" vertex="1">
          <mxGeometry width="35" height="30" as="geometry" />
        </mxCell>
        <mxCell id="g6qgAH0g6jWnOgv-mpRu-378" value="" style="text;strokeColor=none;fillColor=none;align=left;verticalAlign=middle;whiteSpace=wrap;rounded=0;autosize=1;connectable=0;allowArrows=0;movable=0;resizable=0;rotatable=0;deletable=0;cloneable=0;spacingLeft=6;fontStyle=0;html=1;" parent="g6qgAH0g6jWnOgv-mpRu-376" vertex="1">
          <mxGeometry x="35" y="-5" width="50" height="40" as="geometry" />
        </mxCell>
        <mxCell id="g6qgAH0g6jWnOgv-mpRu-379" value="Terem&amp;nbsp; törlése" style="html=1;dashed=0;whitespace=wrap;shape=mxgraph.dfd.process2;align=center;container=1;collapsible=0;spacingTop=30;" parent="g6qgAH0g6jWnOgv-mpRu-370" vertex="1">
          <mxGeometry x="65" y="269.9973003233722" width="160" height="57.79910734032058" as="geometry" />
        </mxCell>
        <mxCell id="g6qgAH0g6jWnOgv-mpRu-380" value="3.3" style="text;html=1;strokeColor=none;fillColor=none;align=center;verticalAlign=middle;whiteSpace=wrap;rounded=0;connectable=0;allowArrows=0;editable=1;movable=0;resizable=0;rotatable=0;deletable=0;locked=0;cloneable=0;" parent="g6qgAH0g6jWnOgv-mpRu-379" vertex="1">
          <mxGeometry width="35" height="30" as="geometry" />
        </mxCell>
        <mxCell id="g6qgAH0g6jWnOgv-mpRu-381" value="" style="text;strokeColor=none;fillColor=none;align=left;verticalAlign=middle;whiteSpace=wrap;rounded=0;autosize=1;connectable=0;allowArrows=0;movable=0;resizable=0;rotatable=0;deletable=0;cloneable=0;spacingLeft=6;fontStyle=0;html=1;" parent="g6qgAH0g6jWnOgv-mpRu-379" vertex="1">
          <mxGeometry x="35" y="-5" width="50" height="40" as="geometry" />
        </mxCell>
        <mxCell id="g6qgAH0g6jWnOgv-mpRu-382" value="Terem adatainak kiíratása" style="html=1;dashed=0;whitespace=wrap;shape=mxgraph.dfd.process2;align=center;container=1;collapsible=0;spacingTop=30;" parent="g6qgAH0g6jWnOgv-mpRu-370" vertex="1">
          <mxGeometry x="65" y="360.0002204527211" width="160" height="57.79910734032058" as="geometry" />
        </mxCell>
        <mxCell id="g6qgAH0g6jWnOgv-mpRu-383" value="3.4" style="text;html=1;strokeColor=none;fillColor=none;align=center;verticalAlign=middle;whiteSpace=wrap;rounded=0;connectable=0;allowArrows=0;editable=1;movable=0;resizable=0;rotatable=0;deletable=0;locked=0;cloneable=0;" parent="g6qgAH0g6jWnOgv-mpRu-382" vertex="1">
          <mxGeometry width="35" height="30" as="geometry" />
        </mxCell>
        <mxCell id="g6qgAH0g6jWnOgv-mpRu-384" value="" style="text;strokeColor=none;fillColor=none;align=left;verticalAlign=middle;whiteSpace=wrap;rounded=0;autosize=1;connectable=0;allowArrows=0;movable=0;resizable=0;rotatable=0;deletable=0;cloneable=0;spacingLeft=6;fontStyle=0;html=1;" parent="g6qgAH0g6jWnOgv-mpRu-382" vertex="1">
          <mxGeometry x="35" y="-5" width="50" height="40" as="geometry" />
        </mxCell>
        <mxCell id="g6qgAH0g6jWnOgv-mpRu-385" value="Admin" style="shape=stencil(tZRtjoMgEIZPw98GJR6gYXfvQe10nZQCAbYft99RNKlW7GajiTGZeeXhnZGBCRka5YCVvGHig5VlwTm9Kb5NYhUc1DElr8qjOmhISojenuGGx9gz0DTgMbaq+GR8T9+0j5C1NYYgaE0YKU86wRQaWsvvCdZv/xhFjvgXiOB7kynLyq+/Y3fVNuBiI79j7OB+db/rgceOi61+3Grg4v9YISmTO9xCHlR9/vb2xxxnzYDW6AK8OfLTeZzO66ynzM5CnqyHBUsn1DqN9UITnWoH/kUY5Iu9PtVUzRY1jx4IGk22K9UioSs+44+uvFxl3bKX1nTZdE12iV8=);whiteSpace=wrap;html=1;" parent="1" vertex="1">
          <mxGeometry x="1790.09" y="2255" width="120" height="80" as="geometry" />
        </mxCell>
        <mxCell id="g6qgAH0g6jWnOgv-mpRu-386" value="" style="endArrow=none;startArrow=classic;html=1;rounded=0;verticalAlign=bottom;entryX=0.55;entryY=1.123;entryDx=0;entryDy=0;entryPerimeter=0;endFill=0;exitX=0.998;exitY=0.492;exitDx=0;exitDy=0;exitPerimeter=0;" parent="1" source="g6qgAH0g6jWnOgv-mpRu-382" target="g6qgAH0g6jWnOgv-mpRu-368" edge="1">
          <mxGeometry width="50" height="50" relative="1" as="geometry">
            <mxPoint x="2240.09" y="2305" as="sourcePoint" />
            <mxPoint x="2150.09" y="2565" as="targetPoint" />
          </mxGeometry>
        </mxCell>
        <mxCell id="g6qgAH0g6jWnOgv-mpRu-387" value="" style="endArrow=classic;html=1;rounded=0;verticalAlign=bottom;exitX=1.005;exitY=0.576;exitDx=0;exitDy=0;exitPerimeter=0;" parent="1" source="g6qgAH0g6jWnOgv-mpRu-379" target="g6qgAH0g6jWnOgv-mpRu-368" edge="1">
          <mxGeometry width="50" height="50" relative="1" as="geometry">
            <mxPoint x="1950.09" y="2505" as="sourcePoint" />
            <mxPoint x="2070.09" y="2505" as="targetPoint" />
          </mxGeometry>
        </mxCell>
        <mxCell id="g6qgAH0g6jWnOgv-mpRu-388" value="" style="endArrow=classic;html=1;rounded=0;verticalAlign=bottom;exitX=1.005;exitY=0.619;exitDx=0;exitDy=0;exitPerimeter=0;entryX=-0.025;entryY=0;entryDx=0;entryDy=0;entryPerimeter=0;" parent="1" source="g6qgAH0g6jWnOgv-mpRu-376" target="g6qgAH0g6jWnOgv-mpRu-368" edge="1">
          <mxGeometry width="50" height="50" relative="1" as="geometry">
            <mxPoint x="1950.09" y="2505" as="sourcePoint" />
            <mxPoint x="2070.09" y="2505" as="targetPoint" />
          </mxGeometry>
        </mxCell>
        <mxCell id="g6qgAH0g6jWnOgv-mpRu-389" value="" style="endArrow=classic;html=1;rounded=0;verticalAlign=bottom;exitX=1.021;exitY=0.582;exitDx=0;exitDy=0;exitPerimeter=0;" parent="1" source="g6qgAH0g6jWnOgv-mpRu-373" target="g6qgAH0g6jWnOgv-mpRu-368" edge="1">
          <mxGeometry width="50" height="50" relative="1" as="geometry">
            <mxPoint x="1950.09" y="2295" as="sourcePoint" />
            <mxPoint x="2070.09" y="2295" as="targetPoint" />
          </mxGeometry>
        </mxCell>
        <mxCell id="g6qgAH0g6jWnOgv-mpRu-390" value="terem adatai" style="endArrow=classic;html=1;rounded=0;verticalAlign=bottom;edgeStyle=orthogonalEdgeStyle;startArrow=classic;startFill=1;entryX=0.821;entryY=0.887;entryDx=0;entryDy=0;entryPerimeter=0;" parent="1" source="g6qgAH0g6jWnOgv-mpRu-379" target="g6qgAH0g6jWnOgv-mpRu-385" edge="1">
          <mxGeometry x="0.4304" width="50" height="50" relative="1" as="geometry">
            <mxPoint x="1631.5185714285715" y="2545" as="sourcePoint" />
            <mxPoint x="2090.09" y="2305" as="targetPoint" />
            <Array as="points">
              <mxPoint x="1888.09" y="2375" />
            </Array>
            <mxPoint as="offset" />
          </mxGeometry>
        </mxCell>
        <mxCell id="g6qgAH0g6jWnOgv-mpRu-391" value="Terem információk" style="endArrow=classic;html=1;rounded=0;verticalAlign=bottom;edgeStyle=orthogonalEdgeStyle;exitX=0;exitY=0.579;exitDx=0;exitDy=0;exitPerimeter=0;" parent="1" source="g6qgAH0g6jWnOgv-mpRu-382" target="g6qgAH0g6jWnOgv-mpRu-385" edge="1">
          <mxGeometry x="-0.0171" width="50" height="50" relative="1" as="geometry">
            <mxPoint x="2010.09" y="2425" as="sourcePoint" />
            <mxPoint x="1639.8100000000002" y="2545.7200000000003" as="targetPoint" />
            <Array as="points">
              <mxPoint x="2155.09" y="2475" />
              <mxPoint x="1850.09" y="2475" />
            </Array>
            <mxPoint as="offset" />
          </mxGeometry>
        </mxCell>
        <mxCell id="g6qgAH0g6jWnOgv-mpRu-392" value="terem adatai" style="endArrow=none;html=1;rounded=0;verticalAlign=bottom;edgeStyle=orthogonalEdgeStyle;startArrow=classic;startFill=1;endFill=0;" parent="1" source="g6qgAH0g6jWnOgv-mpRu-376" target="g6qgAH0g6jWnOgv-mpRu-385" edge="1">
          <mxGeometry x="-0.0157" width="50" height="50" relative="1" as="geometry">
            <mxPoint x="2166.09" y="2382" as="sourcePoint" />
            <mxPoint x="1920.09" y="2382" as="targetPoint" />
            <Array as="points">
              <mxPoint x="1878.09" y="2235" />
            </Array>
            <mxPoint as="offset" />
          </mxGeometry>
        </mxCell>
        <mxCell id="g6qgAH0g6jWnOgv-mpRu-393" value="terem adatai" style="endArrow=none;html=1;rounded=0;verticalAlign=bottom;edgeStyle=orthogonalEdgeStyle;startArrow=classic;startFill=1;exitX=-0.005;exitY=0.685;exitDx=0;exitDy=0;exitPerimeter=0;endFill=0;" parent="1" source="g6qgAH0g6jWnOgv-mpRu-373" target="g6qgAH0g6jWnOgv-mpRu-385" edge="1">
          <mxGeometry x="-0.2152" width="50" height="50" relative="1" as="geometry">
            <mxPoint x="2176.09" y="2392" as="sourcePoint" />
            <mxPoint x="1930.09" y="2392" as="targetPoint" />
            <Array as="points">
              <mxPoint x="1850.09" y="2155" />
            </Array>
            <mxPoint x="-1" as="offset" />
          </mxGeometry>
        </mxCell>
        <mxCell id="g6qgAH0g6jWnOgv-mpRu-415" value="" style="html=1;dashed=0;whitespace=wrap;shape=mxgraph.dfd.process;align=center;container=1;collapsible=0;spacingTop=30;" parent="1" vertex="1">
          <mxGeometry x="2129.91" y="2640" width="290" height="800" as="geometry" />
        </mxCell>
        <mxCell id="g6qgAH0g6jWnOgv-mpRu-416" value="5" style="text;html=1;strokeColor=none;fillColor=none;align=center;verticalAlign=middle;whiteSpace=wrap;rounded=0;movable=0;resizable=0;rotatable=0;cloneable=0;deletable=0;connectable=0;allowArrows=0;pointerEvents=1;" parent="g6qgAH0g6jWnOgv-mpRu-415" vertex="1">
          <mxGeometry width="35" height="30" as="geometry" />
        </mxCell>
        <mxCell id="g6qgAH0g6jWnOgv-mpRu-417" value="" style="text;html=1;strokeColor=none;fillColor=none;align=left;verticalAlign=middle;whiteSpace=wrap;rounded=0;movable=0;resizable=0;connectable=0;allowArrows=0;rotatable=0;cloneable=0;deletable=0;spacingLeft=6;autosize=1;resizeWidth=0;" parent="g6qgAH0g6jWnOgv-mpRu-415" vertex="1">
          <mxGeometry x="35" y="-5" width="50" height="40" as="geometry" />
        </mxCell>
        <mxCell id="g6qgAH0g6jWnOgv-mpRu-418" value="Hallgató felvétele" style="html=1;dashed=0;whitespace=wrap;shape=mxgraph.dfd.process2;align=center;container=1;collapsible=0;spacingTop=30;" parent="g6qgAH0g6jWnOgv-mpRu-415" vertex="1">
          <mxGeometry x="65" y="65.9012987012987" width="160" height="69.16363636363636" as="geometry" />
        </mxCell>
        <mxCell id="g6qgAH0g6jWnOgv-mpRu-419" value="5.1" style="text;html=1;strokeColor=none;fillColor=none;align=center;verticalAlign=middle;whiteSpace=wrap;rounded=0;connectable=0;allowArrows=0;editable=1;movable=0;resizable=0;rotatable=0;deletable=0;locked=0;cloneable=0;" parent="g6qgAH0g6jWnOgv-mpRu-418" vertex="1">
          <mxGeometry width="35" height="30" as="geometry" />
        </mxCell>
        <mxCell id="g6qgAH0g6jWnOgv-mpRu-420" value="" style="text;strokeColor=none;fillColor=none;align=left;verticalAlign=middle;whiteSpace=wrap;rounded=0;autosize=1;connectable=0;allowArrows=0;movable=0;resizable=0;rotatable=0;deletable=0;cloneable=0;spacingLeft=6;fontStyle=0;html=1;" parent="g6qgAH0g6jWnOgv-mpRu-418" vertex="1">
          <mxGeometry x="35" y="-5" width="50" height="40" as="geometry" />
        </mxCell>
        <mxCell id="g6qgAH0g6jWnOgv-mpRu-421" value="Hallgató módosítása" style="html=1;dashed=0;whitespace=wrap;shape=mxgraph.dfd.process2;align=center;container=1;collapsible=0;spacingTop=30;" parent="g6qgAH0g6jWnOgv-mpRu-415" vertex="1">
          <mxGeometry x="65" y="145.45454545454544" width="160" height="72.4155844155844" as="geometry" />
        </mxCell>
        <mxCell id="g6qgAH0g6jWnOgv-mpRu-422" value="5.2" style="text;html=1;strokeColor=none;fillColor=none;align=center;verticalAlign=middle;whiteSpace=wrap;rounded=0;connectable=0;allowArrows=0;editable=1;movable=0;resizable=0;rotatable=0;deletable=0;locked=0;cloneable=0;" parent="g6qgAH0g6jWnOgv-mpRu-421" vertex="1">
          <mxGeometry width="35" height="30" as="geometry" />
        </mxCell>
        <mxCell id="g6qgAH0g6jWnOgv-mpRu-423" value="" style="text;strokeColor=none;fillColor=none;align=left;verticalAlign=middle;whiteSpace=wrap;rounded=0;autosize=1;connectable=0;allowArrows=0;movable=0;resizable=0;rotatable=0;deletable=0;cloneable=0;spacingLeft=6;fontStyle=0;html=1;" parent="g6qgAH0g6jWnOgv-mpRu-421" vertex="1">
          <mxGeometry x="35" y="-5" width="50" height="40" as="geometry" />
        </mxCell>
        <mxCell id="g6qgAH0g6jWnOgv-mpRu-424" value="Hallgató törlése" style="html=1;dashed=0;whitespace=wrap;shape=mxgraph.dfd.process2;align=center;container=1;collapsible=0;spacingTop=30;" parent="g6qgAH0g6jWnOgv-mpRu-415" vertex="1">
          <mxGeometry x="65" y="227.10649350649348" width="160" height="75.66753246753247" as="geometry" />
        </mxCell>
        <mxCell id="g6qgAH0g6jWnOgv-mpRu-425" value="5.3" style="text;html=1;strokeColor=none;fillColor=none;align=center;verticalAlign=middle;whiteSpace=wrap;rounded=0;connectable=0;allowArrows=0;editable=1;movable=0;resizable=0;rotatable=0;deletable=0;locked=0;cloneable=0;" parent="g6qgAH0g6jWnOgv-mpRu-424" vertex="1">
          <mxGeometry width="35" height="30" as="geometry" />
        </mxCell>
        <mxCell id="g6qgAH0g6jWnOgv-mpRu-426" value="" style="text;strokeColor=none;fillColor=none;align=left;verticalAlign=middle;whiteSpace=wrap;rounded=0;autosize=1;connectable=0;allowArrows=0;movable=0;resizable=0;rotatable=0;deletable=0;cloneable=0;spacingLeft=6;fontStyle=0;html=1;" parent="g6qgAH0g6jWnOgv-mpRu-424" vertex="1">
          <mxGeometry x="35" y="-5" width="50" height="40" as="geometry" />
        </mxCell>
        <mxCell id="g6qgAH0g6jWnOgv-mpRu-427" value="Felhasználó&lt;br&gt;&amp;nbsp;adatainak kiíratása" style="html=1;dashed=0;whitespace=wrap;shape=mxgraph.dfd.process2;align=center;container=1;collapsible=0;spacingTop=30;" parent="g6qgAH0g6jWnOgv-mpRu-415" vertex="1">
          <mxGeometry x="65" y="322.24415584415584" width="160" height="72.56103896103896" as="geometry" />
        </mxCell>
        <mxCell id="g6qgAH0g6jWnOgv-mpRu-428" value="5.4" style="text;html=1;strokeColor=none;fillColor=none;align=center;verticalAlign=middle;whiteSpace=wrap;rounded=0;connectable=0;allowArrows=0;editable=1;movable=0;resizable=0;rotatable=0;deletable=0;locked=0;cloneable=0;" parent="g6qgAH0g6jWnOgv-mpRu-427" vertex="1">
          <mxGeometry width="35" height="30" as="geometry" />
        </mxCell>
        <mxCell id="g6qgAH0g6jWnOgv-mpRu-429" value="" style="text;strokeColor=none;fillColor=none;align=left;verticalAlign=middle;whiteSpace=wrap;rounded=0;autosize=1;connectable=0;allowArrows=0;movable=0;resizable=0;rotatable=0;deletable=0;cloneable=0;spacingLeft=6;fontStyle=0;html=1;" parent="g6qgAH0g6jWnOgv-mpRu-427" vertex="1">
          <mxGeometry x="35" y="-5" width="50" height="40" as="geometry" />
        </mxCell>
        <mxCell id="g6qgAH0g6jWnOgv-mpRu-430" value="Felhasználó Létrehozása" style="html=1;dashed=0;whitespace=wrap;shape=mxgraph.dfd.process2;align=center;container=1;collapsible=0;spacingTop=30;" parent="g6qgAH0g6jWnOgv-mpRu-415" vertex="1">
          <mxGeometry x="65" y="417.29870129870125" width="160" height="71.01298701298701" as="geometry" />
        </mxCell>
        <mxCell id="g6qgAH0g6jWnOgv-mpRu-431" value="5.5" style="text;html=1;strokeColor=none;fillColor=none;align=center;verticalAlign=middle;whiteSpace=wrap;rounded=0;connectable=0;allowArrows=0;editable=1;movable=0;resizable=0;rotatable=0;deletable=0;locked=0;cloneable=0;" parent="g6qgAH0g6jWnOgv-mpRu-430" vertex="1">
          <mxGeometry width="35" height="30" as="geometry" />
        </mxCell>
        <mxCell id="g6qgAH0g6jWnOgv-mpRu-432" value="" style="text;strokeColor=none;fillColor=none;align=left;verticalAlign=middle;whiteSpace=wrap;rounded=0;autosize=1;connectable=0;allowArrows=0;movable=0;resizable=0;rotatable=0;deletable=0;cloneable=0;spacingLeft=6;fontStyle=0;html=1;" parent="g6qgAH0g6jWnOgv-mpRu-430" vertex="1">
          <mxGeometry x="35" y="-5" width="50" height="40" as="geometry" />
        </mxCell>
        <mxCell id="g6qgAH0g6jWnOgv-mpRu-433" value="Felhasználó módosítása," style="html=1;dashed=0;whitespace=wrap;shape=mxgraph.dfd.process2;align=center;container=1;collapsible=0;spacingTop=30;" parent="g6qgAH0g6jWnOgv-mpRu-415" vertex="1">
          <mxGeometry x="65" y="498.7012987012987" width="160" height="62.33766233766234" as="geometry" />
        </mxCell>
        <mxCell id="g6qgAH0g6jWnOgv-mpRu-434" value="5.6" style="text;html=1;strokeColor=none;fillColor=none;align=center;verticalAlign=middle;whiteSpace=wrap;rounded=0;connectable=0;allowArrows=0;editable=1;movable=0;resizable=0;rotatable=0;deletable=0;locked=0;cloneable=0;" parent="g6qgAH0g6jWnOgv-mpRu-433" vertex="1">
          <mxGeometry width="35" height="30" as="geometry" />
        </mxCell>
        <mxCell id="g6qgAH0g6jWnOgv-mpRu-435" value="" style="text;strokeColor=none;fillColor=none;align=left;verticalAlign=middle;whiteSpace=wrap;rounded=0;autosize=1;connectable=0;allowArrows=0;movable=0;resizable=0;rotatable=0;deletable=0;cloneable=0;spacingLeft=6;fontStyle=0;html=1;" parent="g6qgAH0g6jWnOgv-mpRu-433" vertex="1">
          <mxGeometry x="35" y="-5" width="50" height="40" as="geometry" />
        </mxCell>
        <mxCell id="g6qgAH0g6jWnOgv-mpRu-436" value="Admin létrehozása" style="html=1;dashed=0;whitespace=wrap;shape=mxgraph.dfd.process2;align=center;container=1;collapsible=0;spacingTop=30;" parent="g6qgAH0g6jWnOgv-mpRu-415" vertex="1">
          <mxGeometry x="65" y="581.8181818181818" width="160" height="62.33766233766234" as="geometry" />
        </mxCell>
        <mxCell id="g6qgAH0g6jWnOgv-mpRu-437" value="5.7" style="text;html=1;strokeColor=none;fillColor=none;align=center;verticalAlign=middle;whiteSpace=wrap;rounded=0;connectable=0;allowArrows=0;editable=1;movable=0;resizable=0;rotatable=0;deletable=0;locked=0;cloneable=0;" parent="g6qgAH0g6jWnOgv-mpRu-436" vertex="1">
          <mxGeometry width="35" height="30" as="geometry" />
        </mxCell>
        <mxCell id="g6qgAH0g6jWnOgv-mpRu-438" value="" style="text;strokeColor=none;fillColor=none;align=left;verticalAlign=middle;whiteSpace=wrap;rounded=0;autosize=1;connectable=0;allowArrows=0;movable=0;resizable=0;rotatable=0;deletable=0;cloneable=0;spacingLeft=6;fontStyle=0;html=1;" parent="g6qgAH0g6jWnOgv-mpRu-436" vertex="1">
          <mxGeometry x="35" y="-5" width="50" height="40" as="geometry" />
        </mxCell>
        <mxCell id="g6qgAH0g6jWnOgv-mpRu-439" value="Admin módosítása" style="html=1;dashed=0;whitespace=wrap;shape=mxgraph.dfd.process2;align=center;container=1;collapsible=0;spacingTop=30;" parent="g6qgAH0g6jWnOgv-mpRu-415" vertex="1">
          <mxGeometry x="65" y="664.94" width="160" height="55.06" as="geometry" />
        </mxCell>
        <mxCell id="g6qgAH0g6jWnOgv-mpRu-440" value="5.8" style="text;html=1;strokeColor=none;fillColor=none;align=center;verticalAlign=middle;whiteSpace=wrap;rounded=0;connectable=0;allowArrows=0;editable=1;movable=0;resizable=0;rotatable=0;deletable=0;locked=0;cloneable=0;" parent="g6qgAH0g6jWnOgv-mpRu-439" vertex="1">
          <mxGeometry width="35" height="30" as="geometry" />
        </mxCell>
        <mxCell id="g6qgAH0g6jWnOgv-mpRu-441" value="" style="text;strokeColor=none;fillColor=none;align=left;verticalAlign=middle;whiteSpace=wrap;rounded=0;autosize=1;connectable=0;allowArrows=0;movable=0;resizable=0;rotatable=0;deletable=0;cloneable=0;spacingLeft=6;fontStyle=0;html=1;" parent="g6qgAH0g6jWnOgv-mpRu-439" vertex="1">
          <mxGeometry x="35" y="-5" width="50" height="40" as="geometry" />
        </mxCell>
        <mxCell id="g6qgAH0g6jWnOgv-mpRu-442" value="Admin törlése" style="html=1;dashed=0;whitespace=wrap;shape=mxgraph.dfd.process2;align=center;container=1;collapsible=0;spacingTop=30;" parent="g6qgAH0g6jWnOgv-mpRu-415" vertex="1">
          <mxGeometry x="65" y="726.32" width="160" height="53.68" as="geometry" />
        </mxCell>
        <mxCell id="g6qgAH0g6jWnOgv-mpRu-443" value="5.9" style="text;html=1;strokeColor=none;fillColor=none;align=center;verticalAlign=middle;whiteSpace=wrap;rounded=0;connectable=0;allowArrows=0;editable=1;movable=0;resizable=0;rotatable=0;deletable=0;locked=0;cloneable=0;" parent="g6qgAH0g6jWnOgv-mpRu-442" vertex="1">
          <mxGeometry width="35" height="30" as="geometry" />
        </mxCell>
        <mxCell id="g6qgAH0g6jWnOgv-mpRu-444" value="" style="text;strokeColor=none;fillColor=none;align=left;verticalAlign=middle;whiteSpace=wrap;rounded=0;autosize=1;connectable=0;allowArrows=0;movable=0;resizable=0;rotatable=0;deletable=0;cloneable=0;spacingLeft=6;fontStyle=0;html=1;" parent="g6qgAH0g6jWnOgv-mpRu-442" vertex="1">
          <mxGeometry x="35" y="-5" width="50" height="40" as="geometry" />
        </mxCell>
        <mxCell id="g6qgAH0g6jWnOgv-mpRu-445" value="Hallgató" style="html=1;dashed=0;whitespace=wrap;shape=mxgraph.dfd.dataStoreID2;align=left;spacingLeft=38;container=1;collapsible=0;flipH=0;" parent="1" vertex="1">
          <mxGeometry x="2490" y="2817.58" width="120" height="30" as="geometry" />
        </mxCell>
        <mxCell id="g6qgAH0g6jWnOgv-mpRu-446" value="L8" style="text;html=1;strokeColor=none;fillColor=none;align=center;verticalAlign=middle;whiteSpace=wrap;rounded=0;connectable=0;allowArrows=0;movable=0;resizable=0;rotatable=0;cloneable=0;deletable=0;" parent="g6qgAH0g6jWnOgv-mpRu-445" vertex="1">
          <mxGeometry x="5" width="30" height="30" as="geometry" />
        </mxCell>
        <mxCell id="g6qgAH0g6jWnOgv-mpRu-447" value="Admin" style="shape=stencil(tZRtjoMgEIZPw98GJR6gYXfvQe10nZQCAbYft99RNKlW7GajiTGZeeXhnZGBCRka5YCVvGHig5VlwTm9Kb5NYhUc1DElr8qjOmhISojenuGGx9gz0DTgMbaq+GR8T9+0j5C1NYYgaE0YKU86wRQaWsvvCdZv/xhFjvgXiOB7kynLyq+/Y3fVNuBiI79j7OB+db/rgceOi61+3Grg4v9YISmTO9xCHlR9/vb2xxxnzYDW6AK8OfLTeZzO66ynzM5CnqyHBUsn1DqN9UITnWoH/kUY5Iu9PtVUzRY1jx4IGk22K9UioSs+44+uvFxl3bKX1nTZdE12iV8=);whiteSpace=wrap;html=1;" parent="1" vertex="1">
          <mxGeometry x="1829.9099999999999" y="2880" width="120" height="80" as="geometry" />
        </mxCell>
        <mxCell id="g6qgAH0g6jWnOgv-mpRu-448" value="" style="endArrow=classic;html=1;rounded=0;verticalAlign=bottom;exitX=1.005;exitY=0.576;exitDx=0;exitDy=0;exitPerimeter=0;entryX=0.048;entryY=1.089;entryDx=0;entryDy=0;entryPerimeter=0;" parent="1" source="g6qgAH0g6jWnOgv-mpRu-424" target="g6qgAH0g6jWnOgv-mpRu-445" edge="1">
          <mxGeometry width="50" height="50" relative="1" as="geometry">
            <mxPoint x="1989.9099999999999" y="3070" as="sourcePoint" />
            <mxPoint x="2109.91" y="3070" as="targetPoint" />
          </mxGeometry>
        </mxCell>
        <mxCell id="g6qgAH0g6jWnOgv-mpRu-449" value="" style="endArrow=classic;html=1;rounded=0;verticalAlign=bottom;exitX=1.005;exitY=0.619;exitDx=0;exitDy=0;exitPerimeter=0;entryX=-0.038;entryY=0.404;entryDx=0;entryDy=0;entryPerimeter=0;" parent="1" source="g6qgAH0g6jWnOgv-mpRu-421" target="g6qgAH0g6jWnOgv-mpRu-445" edge="1">
          <mxGeometry width="50" height="50" relative="1" as="geometry">
            <mxPoint x="1989.9099999999999" y="3070" as="sourcePoint" />
            <mxPoint x="2109.91" y="3070" as="targetPoint" />
          </mxGeometry>
        </mxCell>
        <mxCell id="g6qgAH0g6jWnOgv-mpRu-450" value="" style="endArrow=classic;html=1;rounded=0;verticalAlign=bottom;exitX=1.021;exitY=0.582;exitDx=0;exitDy=0;exitPerimeter=0;entryX=-0.019;entryY=0.023;entryDx=0;entryDy=0;entryPerimeter=0;" parent="1" source="g6qgAH0g6jWnOgv-mpRu-418" target="g6qgAH0g6jWnOgv-mpRu-445" edge="1">
          <mxGeometry width="50" height="50" relative="1" as="geometry">
            <mxPoint x="1989.9099999999999" y="2860" as="sourcePoint" />
            <mxPoint x="2109.91" y="2860" as="targetPoint" />
          </mxGeometry>
        </mxCell>
        <mxCell id="g6qgAH0g6jWnOgv-mpRu-451" value="Hallgató adatai" style="endArrow=none;html=1;rounded=0;verticalAlign=bottom;edgeStyle=orthogonalEdgeStyle;startArrow=classic;startFill=1;endFill=0;" parent="1" source="g6qgAH0g6jWnOgv-mpRu-424" target="g6qgAH0g6jWnOgv-mpRu-447" edge="1">
          <mxGeometry x="0.4304" width="50" height="50" relative="1" as="geometry">
            <mxPoint x="1671.3385714285714" y="3110" as="sourcePoint" />
            <mxPoint x="2129.91" y="2870" as="targetPoint" />
            <Array as="points">
              <mxPoint x="2039.9099999999999" y="2915" />
              <mxPoint x="2039.9099999999999" y="2915" />
            </Array>
            <mxPoint as="offset" />
          </mxGeometry>
        </mxCell>
        <mxCell id="g6qgAH0g6jWnOgv-mpRu-452" value="Felhasználók és szerepük&amp;nbsp;" style="endArrow=classic;html=1;rounded=0;verticalAlign=bottom;edgeStyle=orthogonalEdgeStyle;exitX=0;exitY=0.579;exitDx=0;exitDy=0;exitPerimeter=0;" parent="1" source="g6qgAH0g6jWnOgv-mpRu-427" target="g6qgAH0g6jWnOgv-mpRu-447" edge="1">
          <mxGeometry x="-0.0171" width="50" height="50" relative="1" as="geometry">
            <mxPoint x="2049.91" y="2990" as="sourcePoint" />
            <mxPoint x="1679.63" y="3110.7200000000003" as="targetPoint" />
            <Array as="points">
              <mxPoint x="2194.91" y="3010" />
              <mxPoint x="1909.9099999999999" y="3010" />
            </Array>
            <mxPoint as="offset" />
          </mxGeometry>
        </mxCell>
        <mxCell id="g6qgAH0g6jWnOgv-mpRu-453" value="Hallgató adatai" style="endArrow=none;html=1;rounded=0;verticalAlign=bottom;edgeStyle=orthogonalEdgeStyle;startArrow=classic;startFill=1;entryX=0.747;entryY=0.074;entryDx=0;entryDy=0;entryPerimeter=0;endFill=0;" parent="1" source="g6qgAH0g6jWnOgv-mpRu-421" target="g6qgAH0g6jWnOgv-mpRu-447" edge="1">
          <mxGeometry x="-0.0139" width="50" height="50" relative="1" as="geometry">
            <mxPoint x="2205.91" y="2947" as="sourcePoint" />
            <mxPoint x="1959.9099999999999" y="2947" as="targetPoint" />
            <Array as="points">
              <mxPoint x="1920" y="2820" />
            </Array>
            <mxPoint as="offset" />
          </mxGeometry>
        </mxCell>
        <mxCell id="g6qgAH0g6jWnOgv-mpRu-454" value="Hallgató adatai, Szak adatai" style="endArrow=none;html=1;rounded=0;verticalAlign=bottom;edgeStyle=orthogonalEdgeStyle;startArrow=classic;startFill=1;endFill=0;" parent="1" source="g6qgAH0g6jWnOgv-mpRu-418" target="g6qgAH0g6jWnOgv-mpRu-447" edge="1">
          <mxGeometry x="-0.2152" width="50" height="50" relative="1" as="geometry">
            <mxPoint x="2215.91" y="2957" as="sourcePoint" />
            <mxPoint x="1969.9099999999999" y="2957" as="targetPoint" />
            <Array as="points">
              <mxPoint x="1890" y="2749" />
            </Array>
            <mxPoint x="-1" as="offset" />
          </mxGeometry>
        </mxCell>
        <mxCell id="g6qgAH0g6jWnOgv-mpRu-455" value="Felhasználó adatai" style="endArrow=classic;html=1;rounded=0;verticalAlign=bottom;edgeStyle=orthogonalEdgeStyle;" parent="1" source="g6qgAH0g6jWnOgv-mpRu-447" target="g6qgAH0g6jWnOgv-mpRu-430" edge="1">
          <mxGeometry x="0.1978" y="1" width="50" height="50" relative="1" as="geometry">
            <mxPoint x="2179.91" y="3080" as="sourcePoint" />
            <mxPoint x="2299.91" y="3080" as="targetPoint" />
            <Array as="points">
              <mxPoint x="1889.9099999999999" y="3095" />
            </Array>
            <mxPoint as="offset" />
          </mxGeometry>
        </mxCell>
        <mxCell id="g6qgAH0g6jWnOgv-mpRu-456" value="Felhasználók" style="html=1;dashed=0;whitespace=wrap;shape=mxgraph.dfd.dataStoreID;align=left;spacingLeft=33;container=1;collapsible=0;autosize=0;" parent="1" vertex="1">
          <mxGeometry x="2490" y="3034.81" width="120" height="30" as="geometry" />
        </mxCell>
        <mxCell id="g6qgAH0g6jWnOgv-mpRu-457" value="L10" style="text;html=1;strokeColor=none;fillColor=none;align=center;verticalAlign=middle;whiteSpace=wrap;rounded=0;movable=0;resizable=0;rotatable=0;cloneable=0;deletable=0;allowArrows=0;connectable=0;" parent="g6qgAH0g6jWnOgv-mpRu-456" vertex="1">
          <mxGeometry width="30" height="30" as="geometry" />
        </mxCell>
        <mxCell id="g6qgAH0g6jWnOgv-mpRu-458" value="" style="endArrow=classic;html=1;rounded=0;verticalAlign=bottom;exitX=-0.032;exitY=0.453;exitDx=0;exitDy=0;exitPerimeter=0;" parent="1" source="g6qgAH0g6jWnOgv-mpRu-456" target="g6qgAH0g6jWnOgv-mpRu-427" edge="1">
          <mxGeometry width="50" height="50" relative="1" as="geometry">
            <mxPoint x="2249.91" y="3160" as="sourcePoint" />
            <mxPoint x="2349.91" y="3030" as="targetPoint" />
          </mxGeometry>
        </mxCell>
        <mxCell id="g6qgAH0g6jWnOgv-mpRu-459" value="Felhasználó adatai" style="endArrow=classic;html=1;rounded=0;verticalAlign=bottom;edgeStyle=orthogonalEdgeStyle;" parent="1" source="g6qgAH0g6jWnOgv-mpRu-447" target="g6qgAH0g6jWnOgv-mpRu-433" edge="1">
          <mxGeometry x="0.1978" y="1" width="50" height="50" relative="1" as="geometry">
            <mxPoint x="1899.9099999999999" y="2970" as="sourcePoint" />
            <mxPoint x="2204.91" y="3105" as="targetPoint" />
            <Array as="points">
              <mxPoint x="1879.9099999999999" y="3171" />
            </Array>
            <mxPoint as="offset" />
          </mxGeometry>
        </mxCell>
        <mxCell id="g6qgAH0g6jWnOgv-mpRu-460" value="Admin adatai" style="endArrow=classic;html=1;rounded=0;verticalAlign=bottom;edgeStyle=orthogonalEdgeStyle;" parent="1" source="g6qgAH0g6jWnOgv-mpRu-447" target="g6qgAH0g6jWnOgv-mpRu-436" edge="1">
          <mxGeometry x="0.1978" y="1" width="50" height="50" relative="1" as="geometry">
            <mxPoint x="1839.9099999999999" y="2970" as="sourcePoint" />
            <mxPoint x="2214.91" y="3115" as="targetPoint" />
            <Array as="points">
              <mxPoint x="1859.9099999999999" y="3250" />
            </Array>
            <mxPoint as="offset" />
          </mxGeometry>
        </mxCell>
        <mxCell id="g6qgAH0g6jWnOgv-mpRu-461" value="" style="endArrow=classic;html=1;rounded=0;verticalAlign=bottom;entryX=0.389;entryY=1.068;entryDx=0;entryDy=0;entryPerimeter=0;exitX=0.995;exitY=0.467;exitDx=0;exitDy=0;exitPerimeter=0;" parent="1" source="g6qgAH0g6jWnOgv-mpRu-433" target="g6qgAH0g6jWnOgv-mpRu-456" edge="1">
          <mxGeometry width="50" height="50" relative="1" as="geometry">
            <mxPoint x="2249.91" y="3120" as="sourcePoint" />
            <mxPoint x="2369.91" y="3120" as="targetPoint" />
          </mxGeometry>
        </mxCell>
        <mxCell id="g6qgAH0g6jWnOgv-mpRu-462" value="" style="endArrow=classic;html=1;rounded=0;verticalAlign=bottom;entryX=-0.032;entryY=0.619;entryDx=0;entryDy=0;entryPerimeter=0;" parent="1" source="g6qgAH0g6jWnOgv-mpRu-430" target="g6qgAH0g6jWnOgv-mpRu-456" edge="1">
          <mxGeometry width="50" height="50" relative="1" as="geometry">
            <mxPoint x="2249.91" y="3120" as="sourcePoint" />
            <mxPoint x="2369.91" y="3120" as="targetPoint" />
          </mxGeometry>
        </mxCell>
        <mxCell id="g6qgAH0g6jWnOgv-mpRu-463" value="Admin" style="html=1;dashed=0;whitespace=wrap;shape=mxgraph.dfd.dataStoreID2;align=left;spacingLeft=38;container=1;collapsible=0;" parent="1" vertex="1">
          <mxGeometry x="2469.91" y="3317.4700000000003" width="120" height="30" as="geometry" />
        </mxCell>
        <mxCell id="g6qgAH0g6jWnOgv-mpRu-464" value="L9" style="text;html=1;strokeColor=none;fillColor=none;align=center;verticalAlign=middle;whiteSpace=wrap;rounded=0;connectable=0;allowArrows=0;movable=0;resizable=0;rotatable=0;cloneable=0;deletable=0;" parent="g6qgAH0g6jWnOgv-mpRu-463" vertex="1">
          <mxGeometry x="5" width="30" height="30" as="geometry" />
        </mxCell>
        <mxCell id="g6qgAH0g6jWnOgv-mpRu-465" value="" style="endArrow=classic;html=1;rounded=0;verticalAlign=bottom;" parent="1" source="g6qgAH0g6jWnOgv-mpRu-439" target="g6qgAH0g6jWnOgv-mpRu-463" edge="1">
          <mxGeometry width="50" height="50" relative="1" as="geometry">
            <mxPoint x="2249.91" y="3220" as="sourcePoint" />
            <mxPoint x="2369.91" y="3220" as="targetPoint" />
          </mxGeometry>
        </mxCell>
        <mxCell id="g6qgAH0g6jWnOgv-mpRu-466" value="Admin adatai&amp;nbsp;" style="endArrow=classic;html=1;rounded=0;verticalAlign=bottom;edgeStyle=orthogonalEdgeStyle;" parent="1" source="g6qgAH0g6jWnOgv-mpRu-447" target="g6qgAH0g6jWnOgv-mpRu-439" edge="1">
          <mxGeometry x="-0.1677" width="50" height="50" relative="1" as="geometry">
            <mxPoint x="2249.91" y="3010" as="sourcePoint" />
            <mxPoint x="2369.91" y="3010" as="targetPoint" />
            <Array as="points">
              <mxPoint x="1810" y="2920" />
              <mxPoint x="1810" y="3332" />
            </Array>
            <mxPoint as="offset" />
          </mxGeometry>
        </mxCell>
        <mxCell id="g6qgAH0g6jWnOgv-mpRu-467" value="Admin adatai" style="endArrow=classic;html=1;rounded=0;verticalAlign=bottom;edgeStyle=orthogonalEdgeStyle;" parent="1" source="g6qgAH0g6jWnOgv-mpRu-447" target="g6qgAH0g6jWnOgv-mpRu-442" edge="1">
          <mxGeometry width="50" height="50" relative="1" as="geometry">
            <mxPoint x="1990" y="3060" as="sourcePoint" />
            <mxPoint x="2110" y="3060" as="targetPoint" />
            <Array as="points">
              <mxPoint x="1780" y="2900" />
              <mxPoint x="1780" y="3393" />
            </Array>
          </mxGeometry>
        </mxCell>
        <mxCell id="g6qgAH0g6jWnOgv-mpRu-468" value="" style="endArrow=classic;html=1;rounded=0;verticalAlign=bottom;" parent="1" source="g6qgAH0g6jWnOgv-mpRu-436" target="g6qgAH0g6jWnOgv-mpRu-463" edge="1">
          <mxGeometry width="50" height="50" relative="1" as="geometry">
            <mxPoint x="1990" y="3200" as="sourcePoint" />
            <mxPoint x="2110" y="3200" as="targetPoint" />
          </mxGeometry>
        </mxCell>
        <mxCell id="g6qgAH0g6jWnOgv-mpRu-469" value="" style="endArrow=classic;html=1;rounded=0;verticalAlign=bottom;entryX=0.101;entryY=0.999;entryDx=0;entryDy=0;entryPerimeter=0;" parent="1" source="g6qgAH0g6jWnOgv-mpRu-442" target="g6qgAH0g6jWnOgv-mpRu-463" edge="1">
          <mxGeometry width="50" height="50" relative="1" as="geometry">
            <mxPoint x="1990" y="3200" as="sourcePoint" />
            <mxPoint x="2110" y="3200" as="targetPoint" />
          </mxGeometry>
        </mxCell>
        <mxCell id="g6qgAH0g6jWnOgv-mpRu-471" value="Vizsga" style="html=1;dashed=0;whitespace=wrap;shape=mxgraph.dfd.dataStoreID2;align=left;spacingLeft=38;container=1;collapsible=0;flipH=0;" parent="1" vertex="1">
          <mxGeometry x="2420" y="3841" width="120" height="30" as="geometry" />
        </mxCell>
        <mxCell id="g6qgAH0g6jWnOgv-mpRu-472" value="L11" style="text;html=1;strokeColor=none;fillColor=none;align=center;verticalAlign=middle;whiteSpace=wrap;rounded=0;connectable=0;allowArrows=0;movable=0;resizable=0;rotatable=0;cloneable=0;deletable=0;" parent="g6qgAH0g6jWnOgv-mpRu-471" vertex="1">
          <mxGeometry x="5" width="30" height="30" as="geometry" />
        </mxCell>
        <mxCell id="g6qgAH0g6jWnOgv-mpRu-473" value="" style="html=1;dashed=0;whitespace=wrap;shape=mxgraph.dfd.process;align=center;container=1;collapsible=0;spacingTop=30;" parent="1" vertex="1">
          <mxGeometry x="2080" y="3601" width="290" height="530" as="geometry" />
        </mxCell>
        <mxCell id="g6qgAH0g6jWnOgv-mpRu-474" value="6" style="text;html=1;strokeColor=none;fillColor=none;align=center;verticalAlign=middle;whiteSpace=wrap;rounded=0;movable=0;resizable=0;rotatable=0;cloneable=0;deletable=0;connectable=0;allowArrows=0;pointerEvents=1;" parent="g6qgAH0g6jWnOgv-mpRu-473" vertex="1">
          <mxGeometry width="35" height="30" as="geometry" />
        </mxCell>
        <mxCell id="g6qgAH0g6jWnOgv-mpRu-475" value="" style="text;html=1;strokeColor=none;fillColor=none;align=left;verticalAlign=middle;whiteSpace=wrap;rounded=0;movable=0;resizable=0;connectable=0;allowArrows=0;rotatable=0;cloneable=0;deletable=0;spacingLeft=6;autosize=1;resizeWidth=0;" parent="g6qgAH0g6jWnOgv-mpRu-473" vertex="1">
          <mxGeometry x="35" y="-5" width="50" height="40" as="geometry" />
        </mxCell>
        <mxCell id="g6qgAH0g6jWnOgv-mpRu-476" value="Vizsga létrehozása" style="html=1;dashed=0;whitespace=wrap;shape=mxgraph.dfd.process2;align=center;container=1;collapsible=0;spacingTop=30;" parent="g6qgAH0g6jWnOgv-mpRu-473" vertex="1">
          <mxGeometry x="65" y="45.43135445693792" width="160" height="66.59462367471718" as="geometry" />
        </mxCell>
        <mxCell id="g6qgAH0g6jWnOgv-mpRu-477" value="6.1" style="text;html=1;strokeColor=none;fillColor=none;align=center;verticalAlign=middle;whiteSpace=wrap;rounded=0;connectable=0;allowArrows=0;editable=1;movable=0;resizable=0;rotatable=0;deletable=0;locked=0;cloneable=0;" parent="g6qgAH0g6jWnOgv-mpRu-476" vertex="1">
          <mxGeometry width="35" height="30" as="geometry" />
        </mxCell>
        <mxCell id="g6qgAH0g6jWnOgv-mpRu-478" value="" style="text;strokeColor=none;fillColor=none;align=left;verticalAlign=middle;whiteSpace=wrap;rounded=0;autosize=1;connectable=0;allowArrows=0;movable=0;resizable=0;rotatable=0;deletable=0;cloneable=0;spacingLeft=6;fontStyle=0;html=1;" parent="g6qgAH0g6jWnOgv-mpRu-476" vertex="1">
          <mxGeometry x="35" y="-5" width="50" height="40" as="geometry" />
        </mxCell>
        <mxCell id="g6qgAH0g6jWnOgv-mpRu-479" value="Vizsga módosítása" style="html=1;dashed=0;whitespace=wrap;shape=mxgraph.dfd.process2;align=center;container=1;collapsible=0;spacingTop=30;" parent="g6qgAH0g6jWnOgv-mpRu-473" vertex="1">
          <mxGeometry x="65" y="136.29569891920082" width="160" height="66.59462367471718" as="geometry" />
        </mxCell>
        <mxCell id="g6qgAH0g6jWnOgv-mpRu-480" value="6.2" style="text;html=1;strokeColor=none;fillColor=none;align=center;verticalAlign=middle;whiteSpace=wrap;rounded=0;connectable=0;allowArrows=0;editable=1;movable=0;resizable=0;rotatable=0;deletable=0;locked=0;cloneable=0;" parent="g6qgAH0g6jWnOgv-mpRu-479" vertex="1">
          <mxGeometry width="35" height="30" as="geometry" />
        </mxCell>
        <mxCell id="g6qgAH0g6jWnOgv-mpRu-481" value="" style="text;strokeColor=none;fillColor=none;align=left;verticalAlign=middle;whiteSpace=wrap;rounded=0;autosize=1;connectable=0;allowArrows=0;movable=0;resizable=0;rotatable=0;deletable=0;cloneable=0;spacingLeft=6;fontStyle=0;html=1;" parent="g6qgAH0g6jWnOgv-mpRu-479" vertex="1">
          <mxGeometry x="35" y="-5" width="50" height="40" as="geometry" />
        </mxCell>
        <mxCell id="g6qgAH0g6jWnOgv-mpRu-482" value="Vizsga törlése" style="html=1;dashed=0;whitespace=wrap;shape=mxgraph.dfd.process2;align=center;container=1;collapsible=0;spacingTop=30;" parent="g6qgAH0g6jWnOgv-mpRu-473" vertex="1">
          <mxGeometry x="65" y="263.5050179104549" width="160" height="90.8637992794672" as="geometry" />
        </mxCell>
        <mxCell id="g6qgAH0g6jWnOgv-mpRu-483" value="6.3" style="text;html=1;strokeColor=none;fillColor=none;align=center;verticalAlign=middle;whiteSpace=wrap;rounded=0;connectable=0;allowArrows=0;editable=1;movable=0;resizable=0;rotatable=0;deletable=0;locked=0;cloneable=0;" parent="g6qgAH0g6jWnOgv-mpRu-482" vertex="1">
          <mxGeometry width="35" height="30" as="geometry" />
        </mxCell>
        <mxCell id="g6qgAH0g6jWnOgv-mpRu-484" value="" style="text;strokeColor=none;fillColor=none;align=left;verticalAlign=middle;whiteSpace=wrap;rounded=0;autosize=1;connectable=0;allowArrows=0;movable=0;resizable=0;rotatable=0;deletable=0;cloneable=0;spacingLeft=6;fontStyle=0;html=1;" parent="g6qgAH0g6jWnOgv-mpRu-482" vertex="1">
          <mxGeometry x="35" y="-5" width="50" height="40" as="geometry" />
        </mxCell>
        <mxCell id="g6qgAH0g6jWnOgv-mpRu-485" value="Vizsga adatainak kiíratása" style="html=1;dashed=0;whitespace=wrap;shape=mxgraph.dfd.process2;align=center;container=1;collapsible=0;spacingTop=30;" parent="g6qgAH0g6jWnOgv-mpRu-473" vertex="1">
          <mxGeometry x="65" y="390.714336901709" width="160" height="118.12293906330737" as="geometry" />
        </mxCell>
        <mxCell id="g6qgAH0g6jWnOgv-mpRu-486" value="6.4" style="text;html=1;strokeColor=none;fillColor=none;align=center;verticalAlign=middle;whiteSpace=wrap;rounded=0;connectable=0;allowArrows=0;editable=1;movable=0;resizable=0;rotatable=0;deletable=0;locked=0;cloneable=0;" parent="g6qgAH0g6jWnOgv-mpRu-485" vertex="1">
          <mxGeometry width="35" height="30" as="geometry" />
        </mxCell>
        <mxCell id="g6qgAH0g6jWnOgv-mpRu-487" value="" style="text;strokeColor=none;fillColor=none;align=left;verticalAlign=middle;whiteSpace=wrap;rounded=0;autosize=1;connectable=0;allowArrows=0;movable=0;resizable=0;rotatable=0;deletable=0;cloneable=0;spacingLeft=6;fontStyle=0;html=1;" parent="g6qgAH0g6jWnOgv-mpRu-485" vertex="1">
          <mxGeometry x="35" y="-5" width="50" height="40" as="geometry" />
        </mxCell>
        <mxCell id="g6qgAH0g6jWnOgv-mpRu-488" value="Oktató" style="shape=stencil(tZRtjoMgEIZPw98GJR6gYXfvQe10nZQCAbYft99RNKlW7GajiTGZeeXhnZGBCRka5YCVvGHig5VlwTm9Kb5NYhUc1DElr8qjOmhISojenuGGx9gz0DTgMbaq+GR8T9+0j5C1NYYgaE0YKU86wRQaWsvvCdZv/xhFjvgXiOB7kynLyq+/Y3fVNuBiI79j7OB+db/rgceOi61+3Grg4v9YISmTO9xCHlR9/vb2xxxnzYDW6AK8OfLTeZzO66ynzM5CnqyHBUsn1DqN9UITnWoH/kUY5Iu9PtVUzRY1jx4IGk22K9UioSs+44+uvFxl3bKX1nTZdE12iV8=);whiteSpace=wrap;html=1;" parent="1" vertex="1">
          <mxGeometry x="1750" y="3851" width="120" height="80" as="geometry" />
        </mxCell>
        <mxCell id="g6qgAH0g6jWnOgv-mpRu-489" value="" style="endArrow=none;startArrow=classic;html=1;rounded=0;verticalAlign=bottom;entryX=0.55;entryY=1.123;entryDx=0;entryDy=0;entryPerimeter=0;endFill=0;" parent="1" source="g6qgAH0g6jWnOgv-mpRu-485" target="g6qgAH0g6jWnOgv-mpRu-471" edge="1">
          <mxGeometry width="50" height="50" relative="1" as="geometry">
            <mxPoint x="2230" y="3831" as="sourcePoint" />
            <mxPoint x="2140" y="4091" as="targetPoint" />
          </mxGeometry>
        </mxCell>
        <mxCell id="g6qgAH0g6jWnOgv-mpRu-490" value="" style="endArrow=classic;html=1;rounded=0;verticalAlign=bottom;exitX=1.005;exitY=0.576;exitDx=0;exitDy=0;exitPerimeter=0;" parent="1" source="g6qgAH0g6jWnOgv-mpRu-482" target="g6qgAH0g6jWnOgv-mpRu-471" edge="1">
          <mxGeometry width="50" height="50" relative="1" as="geometry">
            <mxPoint x="1940" y="4031" as="sourcePoint" />
            <mxPoint x="2060" y="4031" as="targetPoint" />
          </mxGeometry>
        </mxCell>
        <mxCell id="g6qgAH0g6jWnOgv-mpRu-491" value="" style="endArrow=classic;html=1;rounded=0;verticalAlign=bottom;exitX=1.005;exitY=0.619;exitDx=0;exitDy=0;exitPerimeter=0;entryX=-0.025;entryY=0;entryDx=0;entryDy=0;entryPerimeter=0;" parent="1" source="g6qgAH0g6jWnOgv-mpRu-479" target="g6qgAH0g6jWnOgv-mpRu-471" edge="1">
          <mxGeometry width="50" height="50" relative="1" as="geometry">
            <mxPoint x="1940" y="4031" as="sourcePoint" />
            <mxPoint x="2060" y="4031" as="targetPoint" />
          </mxGeometry>
        </mxCell>
        <mxCell id="g6qgAH0g6jWnOgv-mpRu-492" value="" style="endArrow=classic;html=1;rounded=0;verticalAlign=bottom;exitX=1.021;exitY=0.582;exitDx=0;exitDy=0;exitPerimeter=0;" parent="1" source="g6qgAH0g6jWnOgv-mpRu-476" target="g6qgAH0g6jWnOgv-mpRu-471" edge="1">
          <mxGeometry width="50" height="50" relative="1" as="geometry">
            <mxPoint x="1940" y="3821" as="sourcePoint" />
            <mxPoint x="2060" y="3821" as="targetPoint" />
          </mxGeometry>
        </mxCell>
        <mxCell id="g6qgAH0g6jWnOgv-mpRu-493" value="Vizsgák adatai,Terem kód, Tárgy kód" style="endArrow=none;html=1;rounded=0;verticalAlign=bottom;edgeStyle=orthogonalEdgeStyle;startArrow=classic;startFill=1;endFill=0;" parent="1" source="g6qgAH0g6jWnOgv-mpRu-482" target="g6qgAH0g6jWnOgv-mpRu-488" edge="1">
          <mxGeometry x="0.2023" y="3" width="50" height="50" relative="1" as="geometry">
            <mxPoint x="1621.4285714285716" y="4071" as="sourcePoint" />
            <mxPoint x="2080" y="3831" as="targetPoint" />
            <Array as="points">
              <mxPoint x="1940" y="3910" />
              <mxPoint x="1940" y="3910" />
            </Array>
            <mxPoint as="offset" />
          </mxGeometry>
        </mxCell>
        <mxCell id="g6qgAH0g6jWnOgv-mpRu-494" value="Vizsgák adatai,Terem kód, Tárgy kód" style="endArrow=classic;html=1;rounded=0;verticalAlign=bottom;edgeStyle=orthogonalEdgeStyle;" parent="1" source="g6qgAH0g6jWnOgv-mpRu-485" target="g6qgAH0g6jWnOgv-mpRu-488" edge="1">
          <mxGeometry x="-0.1954" width="50" height="50" relative="1" as="geometry">
            <mxPoint x="2000" y="3951" as="sourcePoint" />
            <mxPoint x="1629.7200000000003" y="4071.7200000000003" as="targetPoint" />
            <Array as="points">
              <mxPoint x="1840" y="4061" />
            </Array>
            <mxPoint x="1" as="offset" />
          </mxGeometry>
        </mxCell>
        <mxCell id="g6qgAH0g6jWnOgv-mpRu-495" value="Vizsgák adatai,Terem kód, Tárgy kód" style="endArrow=none;html=1;rounded=0;verticalAlign=bottom;edgeStyle=orthogonalEdgeStyle;startArrow=classic;startFill=1;exitX=-0.016;exitY=0.573;exitDx=0;exitDy=0;exitPerimeter=0;endFill=0;" parent="1" source="g6qgAH0g6jWnOgv-mpRu-479" target="g6qgAH0g6jWnOgv-mpRu-488" edge="1">
          <mxGeometry x="-0.0157" width="50" height="50" relative="1" as="geometry">
            <mxPoint x="2156" y="3908" as="sourcePoint" />
            <mxPoint x="1910" y="3908" as="targetPoint" />
            <Array as="points" />
            <mxPoint as="offset" />
          </mxGeometry>
        </mxCell>
        <mxCell id="g6qgAH0g6jWnOgv-mpRu-496" value="Vizsgák adatai,Terem kód, Tárgy kód" style="endArrow=none;html=1;rounded=0;verticalAlign=bottom;edgeStyle=orthogonalEdgeStyle;startArrow=classic;startFill=1;endFill=0;" parent="1" source="g6qgAH0g6jWnOgv-mpRu-476" target="g6qgAH0g6jWnOgv-mpRu-488" edge="1">
          <mxGeometry x="-0.2152" width="50" height="50" relative="1" as="geometry">
            <mxPoint x="2166" y="3918" as="sourcePoint" />
            <mxPoint x="1920" y="3918" as="targetPoint" />
            <Array as="points">
              <mxPoint x="1770" y="3701" />
            </Array>
            <mxPoint x="-1" as="offset" />
          </mxGeometry>
        </mxCell>
        <mxCell id="g6qgAH0g6jWnOgv-mpRu-497" value="Felhasználó" style="shape=stencil(tZRtjoMgEIZPw98GJR6gYXfvQe10nZQCAbYft99RNKlW7GajiTGZeeXhnZGBCRka5YCVvGHig5VlwTm9Kb5NYhUc1DElr8qjOmhISojenuGGx9gz0DTgMbaq+GR8T9+0j5C1NYYgaE0YKU86wRQaWsvvCdZv/xhFjvgXiOB7kynLyq+/Y3fVNuBiI79j7OB+db/rgceOi61+3Grg4v9YISmTO9xCHlR9/vb2xxxnzYDW6AK8OfLTeZzO66ynzM5CnqyHBUsn1DqN9UITnWoH/kUY5Iu9PtVUzRY1jx4IGk22K9UioSs+44+uvFxl3bKX1nTZdE12iV8=);whiteSpace=wrap;html=1;" parent="1" vertex="1">
          <mxGeometry x="1779.9099999999999" y="4211" width="120" height="80" as="geometry" />
        </mxCell>
        <mxCell id="g6qgAH0g6jWnOgv-mpRu-498" value="Felhasználó kód, jelszó" style="endArrow=classic;html=1;rounded=0;verticalAlign=bottom;" parent="1" source="g6qgAH0g6jWnOgv-mpRu-497" target="g6qgAH0g6jWnOgv-mpRu-502" edge="1">
          <mxGeometry width="50" height="50" relative="1" as="geometry">
            <mxPoint x="2369.91" y="4351" as="sourcePoint" />
            <mxPoint x="2059.91" y="4251" as="targetPoint" />
          </mxGeometry>
        </mxCell>
        <mxCell id="g6qgAH0g6jWnOgv-mpRu-499" value="Felhasználók" style="html=1;dashed=0;whitespace=wrap;shape=mxgraph.dfd.dataStoreID;align=left;spacingLeft=33;container=1;collapsible=0;autosize=0;flipH=0;" parent="1" vertex="1">
          <mxGeometry x="2299.91" y="4236" width="120" height="30" as="geometry" />
        </mxCell>
        <mxCell id="g6qgAH0g6jWnOgv-mpRu-500" value="L12" style="text;html=1;strokeColor=none;fillColor=none;align=center;verticalAlign=middle;whiteSpace=wrap;rounded=0;movable=0;resizable=0;rotatable=0;cloneable=0;deletable=0;allowArrows=0;connectable=0;" parent="g6qgAH0g6jWnOgv-mpRu-499" vertex="1">
          <mxGeometry width="30" height="30" as="geometry" />
        </mxCell>
        <mxCell id="g6qgAH0g6jWnOgv-mpRu-501" value="&lt;br&gt;" style="endArrow=classic;startArrow=classic;html=1;rounded=0;verticalAlign=bottom;entryX=-0.012;entryY=0.472;entryDx=0;entryDy=0;entryPerimeter=0;" parent="1" source="g6qgAH0g6jWnOgv-mpRu-502" target="g6qgAH0g6jWnOgv-mpRu-499" edge="1">
          <mxGeometry width="50" height="50" relative="1" as="geometry">
            <mxPoint x="2219.91" y="4249.50806451613" as="sourcePoint" />
            <mxPoint x="2449.91" y="4351" as="targetPoint" />
          </mxGeometry>
        </mxCell>
        <mxCell id="g6qgAH0g6jWnOgv-mpRu-502" value="Bejelentkezés" style="html=1;dashed=0;whitespace=wrap;shape=mxgraph.dfd.process2;align=center;container=1;collapsible=0;spacingTop=30;" parent="1" vertex="1">
          <mxGeometry x="2089.91" y="4191" width="160" height="120" as="geometry" />
        </mxCell>
        <mxCell id="g6qgAH0g6jWnOgv-mpRu-503" value="7" style="text;html=1;strokeColor=none;fillColor=none;align=center;verticalAlign=middle;whiteSpace=wrap;rounded=0;connectable=0;allowArrows=0;editable=1;movable=0;resizable=0;rotatable=0;deletable=0;locked=0;cloneable=0;" parent="g6qgAH0g6jWnOgv-mpRu-502" vertex="1">
          <mxGeometry width="35" height="30" as="geometry" />
        </mxCell>
        <mxCell id="g6qgAH0g6jWnOgv-mpRu-504" value="" style="text;strokeColor=none;fillColor=none;align=left;verticalAlign=middle;whiteSpace=wrap;rounded=0;autosize=1;connectable=0;allowArrows=0;movable=0;resizable=0;rotatable=0;deletable=0;cloneable=0;spacingLeft=6;fontStyle=0;html=1;" parent="g6qgAH0g6jWnOgv-mpRu-502" vertex="1">
          <mxGeometry x="35" y="-5" width="50" height="40" as="geometry" />
        </mxCell>
        <mxCell id="g6qgAH0g6jWnOgv-mpRu-554" value="Felvett vizsga" style="html=1;dashed=0;whitespace=wrap;shape=mxgraph.dfd.dataStoreID2;align=left;spacingLeft=38;container=1;collapsible=0;flipH=0;" parent="1" vertex="1">
          <mxGeometry x="2375" y="4701" width="120" height="30" as="geometry" />
        </mxCell>
        <mxCell id="g6qgAH0g6jWnOgv-mpRu-555" value="L13" style="text;html=1;strokeColor=none;fillColor=none;align=center;verticalAlign=middle;whiteSpace=wrap;rounded=0;connectable=0;allowArrows=0;movable=0;resizable=0;rotatable=0;cloneable=0;deletable=0;" parent="g6qgAH0g6jWnOgv-mpRu-554" vertex="1">
          <mxGeometry x="5" width="30" height="30" as="geometry" />
        </mxCell>
        <mxCell id="g6qgAH0g6jWnOgv-mpRu-556" value="" style="html=1;dashed=0;whitespace=wrap;shape=mxgraph.dfd.process;align=center;container=1;collapsible=0;spacingTop=30;" parent="1" vertex="1">
          <mxGeometry x="2035" y="4461" width="290" height="583.2906" as="geometry" />
        </mxCell>
        <mxCell id="g6qgAH0g6jWnOgv-mpRu-557" value="8" style="text;html=1;strokeColor=none;fillColor=none;align=center;verticalAlign=middle;whiteSpace=wrap;rounded=0;movable=0;resizable=0;rotatable=0;cloneable=0;deletable=0;connectable=0;allowArrows=0;pointerEvents=1;" parent="g6qgAH0g6jWnOgv-mpRu-556" vertex="1">
          <mxGeometry width="35" height="30" as="geometry" />
        </mxCell>
        <mxCell id="g6qgAH0g6jWnOgv-mpRu-558" value="" style="text;html=1;strokeColor=none;fillColor=none;align=left;verticalAlign=middle;whiteSpace=wrap;rounded=0;movable=0;resizable=0;connectable=0;allowArrows=0;rotatable=0;cloneable=0;deletable=0;spacingLeft=6;autosize=1;resizeWidth=0;" parent="g6qgAH0g6jWnOgv-mpRu-556" vertex="1">
          <mxGeometry x="35" y="-5" width="50" height="40" as="geometry" />
        </mxCell>
        <mxCell id="g6qgAH0g6jWnOgv-mpRu-559" value="Vizsga felvétele" style="html=1;dashed=0;whitespace=wrap;shape=mxgraph.dfd.process2;align=center;container=1;collapsible=0;spacingTop=30;" parent="g6qgAH0g6jWnOgv-mpRu-556" vertex="1">
          <mxGeometry x="65" y="49.99939999999999" width="160" height="73.2906" as="geometry" />
        </mxCell>
        <mxCell id="g6qgAH0g6jWnOgv-mpRu-560" value="8.1" style="text;html=1;strokeColor=none;fillColor=none;align=center;verticalAlign=middle;whiteSpace=wrap;rounded=0;connectable=0;allowArrows=0;editable=1;movable=0;resizable=0;rotatable=0;deletable=0;locked=0;cloneable=0;" parent="g6qgAH0g6jWnOgv-mpRu-559" vertex="1">
          <mxGeometry width="35" height="30" as="geometry" />
        </mxCell>
        <mxCell id="g6qgAH0g6jWnOgv-mpRu-561" value="" style="text;strokeColor=none;fillColor=none;align=left;verticalAlign=middle;whiteSpace=wrap;rounded=0;autosize=1;connectable=0;allowArrows=0;movable=0;resizable=0;rotatable=0;deletable=0;cloneable=0;spacingLeft=6;fontStyle=0;html=1;" parent="g6qgAH0g6jWnOgv-mpRu-559" vertex="1">
          <mxGeometry x="35" y="-5" width="50" height="40" as="geometry" />
        </mxCell>
        <mxCell id="g6qgAH0g6jWnOgv-mpRu-562" value="Vizsga leadás" style="html=1;dashed=0;whitespace=wrap;shape=mxgraph.dfd.process2;align=center;container=1;collapsible=0;spacingTop=30;" parent="g6qgAH0g6jWnOgv-mpRu-556" vertex="1">
          <mxGeometry x="65" y="218.34999999999994" width="160" height="73.2906" as="geometry" />
        </mxCell>
        <mxCell id="g6qgAH0g6jWnOgv-mpRu-563" value="8.2" style="text;html=1;strokeColor=none;fillColor=none;align=center;verticalAlign=middle;whiteSpace=wrap;rounded=0;connectable=0;allowArrows=0;editable=1;movable=0;resizable=0;rotatable=0;deletable=0;locked=0;cloneable=0;" parent="g6qgAH0g6jWnOgv-mpRu-562" vertex="1">
          <mxGeometry width="35" height="30" as="geometry" />
        </mxCell>
        <mxCell id="g6qgAH0g6jWnOgv-mpRu-564" value="" style="text;strokeColor=none;fillColor=none;align=left;verticalAlign=middle;whiteSpace=wrap;rounded=0;autosize=1;connectable=0;allowArrows=0;movable=0;resizable=0;rotatable=0;deletable=0;cloneable=0;spacingLeft=6;fontStyle=0;html=1;" parent="g6qgAH0g6jWnOgv-mpRu-562" vertex="1">
          <mxGeometry x="35" y="-5" width="50" height="40" as="geometry" />
        </mxCell>
        <mxCell id="g6qgAH0g6jWnOgv-mpRu-565" value="Vizsga adatainak kiíratása" style="html=1;dashed=0;whitespace=wrap;shape=mxgraph.dfd.process2;align=center;container=1;collapsible=0;spacingTop=30;" parent="g6qgAH0g6jWnOgv-mpRu-556" vertex="1">
          <mxGeometry x="65" y="349.99999999999994" width="160" height="73.2906" as="geometry" />
        </mxCell>
        <mxCell id="g6qgAH0g6jWnOgv-mpRu-566" value="8.3" style="text;html=1;strokeColor=none;fillColor=none;align=center;verticalAlign=middle;whiteSpace=wrap;rounded=0;connectable=0;allowArrows=0;editable=1;movable=0;resizable=0;rotatable=0;deletable=0;locked=0;cloneable=0;" parent="g6qgAH0g6jWnOgv-mpRu-565" vertex="1">
          <mxGeometry width="35" height="30" as="geometry" />
        </mxCell>
        <mxCell id="g6qgAH0g6jWnOgv-mpRu-567" value="" style="text;strokeColor=none;fillColor=none;align=left;verticalAlign=middle;whiteSpace=wrap;rounded=0;autosize=1;connectable=0;allowArrows=0;movable=0;resizable=0;rotatable=0;deletable=0;cloneable=0;spacingLeft=6;fontStyle=0;html=1;" parent="g6qgAH0g6jWnOgv-mpRu-565" vertex="1">
          <mxGeometry x="35" y="-5" width="50" height="40" as="geometry" />
        </mxCell>
        <mxCell id="g6qgAH0g6jWnOgv-mpRu-568" value="Hallgató" style="shape=stencil(tZRtjoMgEIZPw98GJR6gYXfvQe10nZQCAbYft99RNKlW7GajiTGZeeXhnZGBCRka5YCVvGHig5VlwTm9Kb5NYhUc1DElr8qjOmhISojenuGGx9gz0DTgMbaq+GR8T9+0j5C1NYYgaE0YKU86wRQaWsvvCdZv/xhFjvgXiOB7kynLyq+/Y3fVNuBiI79j7OB+db/rgceOi61+3Grg4v9YISmTO9xCHlR9/vb2xxxnzYDW6AK8OfLTeZzO66ynzM5CnqyHBUsn1DqN9UITnWoH/kUY5Iu9PtVUzRY1jx4IGk22K9UioSs+44+uvFxl3bKX1nTZdE12iV8=);whiteSpace=wrap;html=1;" parent="1" vertex="1">
          <mxGeometry x="1735" y="4701" width="120" height="80" as="geometry" />
        </mxCell>
        <mxCell id="g6qgAH0g6jWnOgv-mpRu-569" value="" style="endArrow=none;startArrow=classic;html=1;rounded=0;verticalAlign=bottom;entryX=0.55;entryY=1.123;entryDx=0;entryDy=0;entryPerimeter=0;endFill=0;" parent="1" source="g6qgAH0g6jWnOgv-mpRu-565" target="g6qgAH0g6jWnOgv-mpRu-554" edge="1">
          <mxGeometry width="50" height="50" relative="1" as="geometry">
            <mxPoint x="2185" y="4691" as="sourcePoint" />
            <mxPoint x="2095" y="4951" as="targetPoint" />
          </mxGeometry>
        </mxCell>
        <mxCell id="g6qgAH0g6jWnOgv-mpRu-570" value="" style="endArrow=classic;html=1;rounded=0;verticalAlign=bottom;" parent="1" source="g6qgAH0g6jWnOgv-mpRu-559" target="g6qgAH0g6jWnOgv-mpRu-554" edge="1">
          <mxGeometry width="50" height="50" relative="1" as="geometry">
            <mxPoint x="1895" y="4681" as="sourcePoint" />
            <mxPoint x="2015" y="4681" as="targetPoint" />
          </mxGeometry>
        </mxCell>
        <mxCell id="g6qgAH0g6jWnOgv-mpRu-571" value="Felhasználó kód,Vizsga kód" style="endArrow=none;html=1;rounded=0;verticalAlign=bottom;edgeStyle=orthogonalEdgeStyle;startArrow=classic;startFill=1;exitX=0.005;exitY=0.645;exitDx=0;exitDy=0;exitPerimeter=0;endFill=0;" parent="1" source="g6qgAH0g6jWnOgv-mpRu-562" target="g6qgAH0g6jWnOgv-mpRu-568" edge="1">
          <mxGeometry x="0.2677" width="50" height="50" relative="1" as="geometry">
            <mxPoint x="1576.4285714285716" y="4931" as="sourcePoint" />
            <mxPoint x="2035" y="4691" as="targetPoint" />
            <Array as="points">
              <mxPoint x="2005" y="4727" />
              <mxPoint x="2005" y="4727" />
            </Array>
            <mxPoint as="offset" />
          </mxGeometry>
        </mxCell>
        <mxCell id="g6qgAH0g6jWnOgv-mpRu-572" value="Vizsga információk" style="endArrow=classic;html=1;rounded=0;verticalAlign=bottom;edgeStyle=orthogonalEdgeStyle;exitX=0;exitY=0.579;exitDx=0;exitDy=0;exitPerimeter=0;" parent="1" source="g6qgAH0g6jWnOgv-mpRu-565" target="g6qgAH0g6jWnOgv-mpRu-568" edge="1">
          <mxGeometry x="-0.0171" width="50" height="50" relative="1" as="geometry">
            <mxPoint x="1955" y="4811" as="sourcePoint" />
            <mxPoint x="1584.7200000000003" y="4931.72" as="targetPoint" />
            <Array as="points">
              <mxPoint x="2100" y="4861" />
              <mxPoint x="1795" y="4861" />
            </Array>
            <mxPoint as="offset" />
          </mxGeometry>
        </mxCell>
        <mxCell id="g6qgAH0g6jWnOgv-mpRu-573" value="Felhasználó kód,Vizsga kód" style="endArrow=none;html=1;rounded=0;verticalAlign=bottom;edgeStyle=orthogonalEdgeStyle;startArrow=classic;startFill=1;exitX=-0.005;exitY=0.685;exitDx=0;exitDy=0;exitPerimeter=0;endFill=0;" parent="1" source="g6qgAH0g6jWnOgv-mpRu-559" target="g6qgAH0g6jWnOgv-mpRu-568" edge="1">
          <mxGeometry x="-0.3071" width="50" height="50" relative="1" as="geometry">
            <mxPoint x="2121" y="4778" as="sourcePoint" />
            <mxPoint x="1875" y="4778" as="targetPoint" />
            <Array as="points">
              <mxPoint x="1800" y="4561" />
            </Array>
            <mxPoint as="offset" />
          </mxGeometry>
        </mxCell>
        <mxCell id="g6qgAH0g6jWnOgv-mpRu-574" value="" style="endArrow=classic;html=1;rounded=0;verticalAlign=bottom;exitX=0.39;exitY=0.067;exitDx=0;exitDy=0;exitPerimeter=0;entryX=0.995;entryY=0.55;entryDx=0;entryDy=0;entryPerimeter=0;" parent="1" source="g6qgAH0g6jWnOgv-mpRu-575" target="g6qgAH0g6jWnOgv-mpRu-565" edge="1">
          <mxGeometry width="50" height="50" relative="1" as="geometry">
            <mxPoint x="2418.32" y="4911.120000000001" as="sourcePoint" />
            <mxPoint x="2135" y="4891" as="targetPoint" />
          </mxGeometry>
        </mxCell>
        <mxCell id="g6qgAH0g6jWnOgv-mpRu-575" value="Vizsga" style="html=1;dashed=0;whitespace=wrap;shape=mxgraph.dfd.dataStoreID2;align=left;spacingLeft=38;container=1;collapsible=0;flipH=0;" parent="1" vertex="1">
          <mxGeometry x="2375" y="4854.29" width="120" height="30" as="geometry" />
        </mxCell>
        <mxCell id="g6qgAH0g6jWnOgv-mpRu-576" value="L11" style="text;html=1;strokeColor=none;fillColor=none;align=center;verticalAlign=middle;whiteSpace=wrap;rounded=0;connectable=0;allowArrows=0;movable=0;resizable=0;rotatable=0;cloneable=0;deletable=0;" parent="g6qgAH0g6jWnOgv-mpRu-575" vertex="1">
          <mxGeometry x="5" width="30" height="30" as="geometry" />
        </mxCell>
        <mxCell id="g6qgAH0g6jWnOgv-mpRu-577" value="" style="endArrow=classic;html=1;rounded=0;verticalAlign=bottom;" parent="1" source="g6qgAH0g6jWnOgv-mpRu-562" target="g6qgAH0g6jWnOgv-mpRu-554" edge="1">
          <mxGeometry width="50" height="50" relative="1" as="geometry">
            <mxPoint x="2015" y="4791" as="sourcePoint" />
            <mxPoint x="2135" y="4791" as="targetPoint" />
          </mxGeometry>
        </mxCell>
        <mxCell id="g6qgAH0g6jWnOgv-mpRu-590" value="Felvett kurzus" style="html=1;dashed=0;whitespace=wrap;shape=mxgraph.dfd.dataStoreID2;align=left;spacingLeft=38;container=1;collapsible=0;flipH=0;" parent="1" vertex="1">
          <mxGeometry x="2379.91" y="6260" width="120" height="30" as="geometry" />
        </mxCell>
        <mxCell id="g6qgAH0g6jWnOgv-mpRu-591" value="L14" style="text;html=1;strokeColor=none;fillColor=none;align=center;verticalAlign=middle;whiteSpace=wrap;rounded=0;connectable=0;allowArrows=0;movable=0;resizable=0;rotatable=0;cloneable=0;deletable=0;" parent="g6qgAH0g6jWnOgv-mpRu-590" vertex="1">
          <mxGeometry x="5" width="30" height="30" as="geometry" />
        </mxCell>
        <mxCell id="g6qgAH0g6jWnOgv-mpRu-592" value="" style="html=1;dashed=0;whitespace=wrap;shape=mxgraph.dfd.process;align=center;container=1;collapsible=0;spacingTop=30;" parent="1" vertex="1">
          <mxGeometry x="2039.91" y="6020" width="290" height="583.2906" as="geometry" />
        </mxCell>
        <mxCell id="g6qgAH0g6jWnOgv-mpRu-593" value="12" style="text;html=1;strokeColor=none;fillColor=none;align=center;verticalAlign=middle;whiteSpace=wrap;rounded=0;movable=0;resizable=0;rotatable=0;cloneable=0;deletable=0;connectable=0;allowArrows=0;pointerEvents=1;" parent="g6qgAH0g6jWnOgv-mpRu-592" vertex="1">
          <mxGeometry width="35" height="30" as="geometry" />
        </mxCell>
        <mxCell id="g6qgAH0g6jWnOgv-mpRu-594" value="" style="text;html=1;strokeColor=none;fillColor=none;align=left;verticalAlign=middle;whiteSpace=wrap;rounded=0;movable=0;resizable=0;connectable=0;allowArrows=0;rotatable=0;cloneable=0;deletable=0;spacingLeft=6;autosize=1;resizeWidth=0;" parent="g6qgAH0g6jWnOgv-mpRu-592" vertex="1">
          <mxGeometry x="35" y="-5" width="50" height="40" as="geometry" />
        </mxCell>
        <mxCell id="g6qgAH0g6jWnOgv-mpRu-595" value="Érdemjegy módosítása" style="html=1;dashed=0;whitespace=wrap;shape=mxgraph.dfd.process2;align=center;container=1;collapsible=0;spacingTop=30;" parent="g6qgAH0g6jWnOgv-mpRu-592" vertex="1">
          <mxGeometry x="65" y="49.99939999999999" width="160" height="73.2906" as="geometry" />
        </mxCell>
        <mxCell id="g6qgAH0g6jWnOgv-mpRu-596" value="12.1" style="text;html=1;strokeColor=none;fillColor=none;align=center;verticalAlign=middle;whiteSpace=wrap;rounded=0;connectable=0;allowArrows=0;editable=1;movable=0;resizable=0;rotatable=0;deletable=0;locked=0;cloneable=0;" parent="g6qgAH0g6jWnOgv-mpRu-595" vertex="1">
          <mxGeometry width="35" height="30" as="geometry" />
        </mxCell>
        <mxCell id="g6qgAH0g6jWnOgv-mpRu-597" value="" style="text;strokeColor=none;fillColor=none;align=left;verticalAlign=middle;whiteSpace=wrap;rounded=0;autosize=1;connectable=0;allowArrows=0;movable=0;resizable=0;rotatable=0;deletable=0;cloneable=0;spacingLeft=6;fontStyle=0;html=1;" parent="g6qgAH0g6jWnOgv-mpRu-595" vertex="1">
          <mxGeometry x="35" y="-5" width="50" height="40" as="geometry" />
        </mxCell>
        <mxCell id="g6qgAH0g6jWnOgv-mpRu-598" value="Érdemjegy beítása" style="html=1;dashed=0;whitespace=wrap;shape=mxgraph.dfd.process2;align=center;container=1;collapsible=0;spacingTop=30;" parent="g6qgAH0g6jWnOgv-mpRu-592" vertex="1">
          <mxGeometry x="65" y="218.34999999999994" width="160" height="73.2906" as="geometry" />
        </mxCell>
        <mxCell id="g6qgAH0g6jWnOgv-mpRu-599" value="12.2" style="text;html=1;strokeColor=none;fillColor=none;align=center;verticalAlign=middle;whiteSpace=wrap;rounded=0;connectable=0;allowArrows=0;editable=1;movable=0;resizable=0;rotatable=0;deletable=0;locked=0;cloneable=0;" parent="g6qgAH0g6jWnOgv-mpRu-598" vertex="1">
          <mxGeometry width="35" height="30" as="geometry" />
        </mxCell>
        <mxCell id="g6qgAH0g6jWnOgv-mpRu-600" value="" style="text;strokeColor=none;fillColor=none;align=left;verticalAlign=middle;whiteSpace=wrap;rounded=0;autosize=1;connectable=0;allowArrows=0;movable=0;resizable=0;rotatable=0;deletable=0;cloneable=0;spacingLeft=6;fontStyle=0;html=1;" parent="g6qgAH0g6jWnOgv-mpRu-598" vertex="1">
          <mxGeometry x="35" y="-5" width="50" height="40" as="geometry" />
        </mxCell>
        <mxCell id="g6qgAH0g6jWnOgv-mpRu-601" value="Kurzus adatainak kiíratása" style="html=1;dashed=0;whitespace=wrap;shape=mxgraph.dfd.process2;align=center;container=1;collapsible=0;spacingTop=30;" parent="g6qgAH0g6jWnOgv-mpRu-592" vertex="1">
          <mxGeometry x="65" y="349.99999999999994" width="160" height="73.2906" as="geometry" />
        </mxCell>
        <mxCell id="g6qgAH0g6jWnOgv-mpRu-602" value="12.3" style="text;html=1;strokeColor=none;fillColor=none;align=center;verticalAlign=middle;whiteSpace=wrap;rounded=0;connectable=0;allowArrows=0;editable=1;movable=0;resizable=0;rotatable=0;deletable=0;locked=0;cloneable=0;" parent="g6qgAH0g6jWnOgv-mpRu-601" vertex="1">
          <mxGeometry width="35" height="30" as="geometry" />
        </mxCell>
        <mxCell id="g6qgAH0g6jWnOgv-mpRu-603" value="" style="text;strokeColor=none;fillColor=none;align=left;verticalAlign=middle;whiteSpace=wrap;rounded=0;autosize=1;connectable=0;allowArrows=0;movable=0;resizable=0;rotatable=0;deletable=0;cloneable=0;spacingLeft=6;fontStyle=0;html=1;" parent="g6qgAH0g6jWnOgv-mpRu-601" vertex="1">
          <mxGeometry x="35" y="-5" width="50" height="40" as="geometry" />
        </mxCell>
        <mxCell id="g6qgAH0g6jWnOgv-mpRu-604" value="Oktató" style="shape=stencil(tZRtjoMgEIZPw98GJR6gYXfvQe10nZQCAbYft99RNKlW7GajiTGZeeXhnZGBCRka5YCVvGHig5VlwTm9Kb5NYhUc1DElr8qjOmhISojenuGGx9gz0DTgMbaq+GR8T9+0j5C1NYYgaE0YKU86wRQaWsvvCdZv/xhFjvgXiOB7kynLyq+/Y3fVNuBiI79j7OB+db/rgceOi61+3Grg4v9YISmTO9xCHlR9/vb2xxxnzYDW6AK8OfLTeZzO66ynzM5CnqyHBUsn1DqN9UITnWoH/kUY5Iu9PtVUzRY1jx4IGk22K9UioSs+44+uvFxl3bKX1nTZdE12iV8=);whiteSpace=wrap;html=1;" parent="1" vertex="1">
          <mxGeometry x="1739.91" y="6260" width="120" height="80" as="geometry" />
        </mxCell>
        <mxCell id="g6qgAH0g6jWnOgv-mpRu-605" value="" style="endArrow=none;startArrow=classic;html=1;rounded=0;verticalAlign=bottom;endFill=0;" parent="1" source="g6qgAH0g6jWnOgv-mpRu-601" edge="1">
          <mxGeometry width="50" height="50" relative="1" as="geometry">
            <mxPoint x="2189.91" y="6250" as="sourcePoint" />
            <mxPoint x="2439.91" y="6290" as="targetPoint" />
          </mxGeometry>
        </mxCell>
        <mxCell id="g6qgAH0g6jWnOgv-mpRu-606" value="" style="endArrow=classic;html=1;rounded=0;verticalAlign=bottom;exitX=1.021;exitY=0.582;exitDx=0;exitDy=0;exitPerimeter=0;" parent="1" source="g6qgAH0g6jWnOgv-mpRu-595" target="g6qgAH0g6jWnOgv-mpRu-590" edge="1">
          <mxGeometry width="50" height="50" relative="1" as="geometry">
            <mxPoint x="1899.91" y="6240" as="sourcePoint" />
            <mxPoint x="2019.91" y="6240" as="targetPoint" />
          </mxGeometry>
        </mxCell>
        <mxCell id="g6qgAH0g6jWnOgv-mpRu-607" value="Felhasználó kód, Kurzus kód" style="endArrow=none;html=1;rounded=0;verticalAlign=bottom;edgeStyle=orthogonalEdgeStyle;startArrow=classic;startFill=1;exitX=0.005;exitY=0.645;exitDx=0;exitDy=0;exitPerimeter=0;endFill=0;" parent="1" source="g6qgAH0g6jWnOgv-mpRu-598" target="g6qgAH0g6jWnOgv-mpRu-604" edge="1">
          <mxGeometry x="0.2677" width="50" height="50" relative="1" as="geometry">
            <mxPoint x="1581.3385714285716" y="6490" as="sourcePoint" />
            <mxPoint x="2039.91" y="6250" as="targetPoint" />
            <Array as="points">
              <mxPoint x="2009.91" y="6286" />
              <mxPoint x="2009.91" y="6286" />
            </Array>
            <mxPoint as="offset" />
          </mxGeometry>
        </mxCell>
        <mxCell id="g6qgAH0g6jWnOgv-mpRu-608" value="Kurzus iformációk" style="endArrow=classic;html=1;rounded=0;verticalAlign=bottom;edgeStyle=orthogonalEdgeStyle;exitX=0;exitY=0.579;exitDx=0;exitDy=0;exitPerimeter=0;" parent="1" source="g6qgAH0g6jWnOgv-mpRu-601" target="g6qgAH0g6jWnOgv-mpRu-604" edge="1">
          <mxGeometry x="-0.0171" width="50" height="50" relative="1" as="geometry">
            <mxPoint x="1959.91" y="6370" as="sourcePoint" />
            <mxPoint x="1589.6300000000003" y="6490.72" as="targetPoint" />
            <Array as="points">
              <mxPoint x="2104.91" y="6420" />
              <mxPoint x="1799.91" y="6420" />
            </Array>
            <mxPoint as="offset" />
          </mxGeometry>
        </mxCell>
        <mxCell id="g6qgAH0g6jWnOgv-mpRu-609" value="Felhasználó kód, Kurzus kód" style="endArrow=none;html=1;rounded=0;verticalAlign=bottom;edgeStyle=orthogonalEdgeStyle;startArrow=classic;startFill=1;exitX=-0.005;exitY=0.685;exitDx=0;exitDy=0;exitPerimeter=0;endFill=0;" parent="1" source="g6qgAH0g6jWnOgv-mpRu-595" target="g6qgAH0g6jWnOgv-mpRu-604" edge="1">
          <mxGeometry x="-0.3071" width="50" height="50" relative="1" as="geometry">
            <mxPoint x="2125.91" y="6337" as="sourcePoint" />
            <mxPoint x="1879.91" y="6337" as="targetPoint" />
            <Array as="points">
              <mxPoint x="1769.91" y="6120" />
            </Array>
            <mxPoint as="offset" />
          </mxGeometry>
        </mxCell>
        <mxCell id="g6qgAH0g6jWnOgv-mpRu-610" value="" style="endArrow=classic;html=1;rounded=0;verticalAlign=bottom;exitX=0.39;exitY=0.067;exitDx=0;exitDy=0;exitPerimeter=0;entryX=0.995;entryY=0.55;entryDx=0;entryDy=0;entryPerimeter=0;" parent="1" source="g6qgAH0g6jWnOgv-mpRu-611" target="g6qgAH0g6jWnOgv-mpRu-601" edge="1">
          <mxGeometry width="50" height="50" relative="1" as="geometry">
            <mxPoint x="2423.23" y="6470.120000000001" as="sourcePoint" />
            <mxPoint x="2139.91" y="6450" as="targetPoint" />
          </mxGeometry>
        </mxCell>
        <mxCell id="g6qgAH0g6jWnOgv-mpRu-611" value="Kurzus" style="html=1;dashed=0;whitespace=wrap;shape=mxgraph.dfd.dataStoreID2;align=left;spacingLeft=38;container=1;collapsible=0;flipH=0;" parent="1" vertex="1">
          <mxGeometry x="2389.8199999999997" y="6413.29" width="120" height="30" as="geometry" />
        </mxCell>
        <mxCell id="g6qgAH0g6jWnOgv-mpRu-612" value="L2" style="text;html=1;strokeColor=none;fillColor=none;align=center;verticalAlign=middle;whiteSpace=wrap;rounded=0;connectable=0;allowArrows=0;movable=0;resizable=0;rotatable=0;cloneable=0;deletable=0;" parent="g6qgAH0g6jWnOgv-mpRu-611" vertex="1">
          <mxGeometry x="5" width="30" height="30" as="geometry" />
        </mxCell>
        <mxCell id="g6qgAH0g6jWnOgv-mpRu-613" value="" style="endArrow=classic;html=1;rounded=0;verticalAlign=bottom;" parent="1" source="g6qgAH0g6jWnOgv-mpRu-598" target="g6qgAH0g6jWnOgv-mpRu-590" edge="1">
          <mxGeometry width="50" height="50" relative="1" as="geometry">
            <mxPoint x="2019.91" y="6350" as="sourcePoint" />
            <mxPoint x="2139.91" y="6350" as="targetPoint" />
          </mxGeometry>
        </mxCell>
        <mxCell id="g6qgAH0g6jWnOgv-mpRu-614" value="Felvett kurzus" style="html=1;dashed=0;whitespace=wrap;shape=mxgraph.dfd.dataStoreID2;align=left;spacingLeft=38;container=1;collapsible=0;flipH=0;" parent="1" vertex="1">
          <mxGeometry x="2375" y="5361" width="120" height="30" as="geometry" />
        </mxCell>
        <mxCell id="g6qgAH0g6jWnOgv-mpRu-615" value="L14" style="text;html=1;strokeColor=none;fillColor=none;align=center;verticalAlign=middle;whiteSpace=wrap;rounded=0;connectable=0;allowArrows=0;movable=0;resizable=0;rotatable=0;cloneable=0;deletable=0;" parent="g6qgAH0g6jWnOgv-mpRu-614" vertex="1">
          <mxGeometry x="5" width="30" height="30" as="geometry" />
        </mxCell>
        <mxCell id="g6qgAH0g6jWnOgv-mpRu-616" value="" style="html=1;dashed=0;whitespace=wrap;shape=mxgraph.dfd.process;align=center;container=1;collapsible=0;spacingTop=30;" parent="1" vertex="1">
          <mxGeometry x="2034.9999999999998" y="5121" width="290" height="583.2906" as="geometry" />
        </mxCell>
        <mxCell id="g6qgAH0g6jWnOgv-mpRu-617" value="9" style="text;html=1;strokeColor=none;fillColor=none;align=center;verticalAlign=middle;whiteSpace=wrap;rounded=0;movable=0;resizable=0;rotatable=0;cloneable=0;deletable=0;connectable=0;allowArrows=0;pointerEvents=1;" parent="g6qgAH0g6jWnOgv-mpRu-616" vertex="1">
          <mxGeometry width="35" height="30" as="geometry" />
        </mxCell>
        <mxCell id="g6qgAH0g6jWnOgv-mpRu-618" value="" style="text;html=1;strokeColor=none;fillColor=none;align=left;verticalAlign=middle;whiteSpace=wrap;rounded=0;movable=0;resizable=0;connectable=0;allowArrows=0;rotatable=0;cloneable=0;deletable=0;spacingLeft=6;autosize=1;resizeWidth=0;" parent="g6qgAH0g6jWnOgv-mpRu-616" vertex="1">
          <mxGeometry x="35" y="-5" width="50" height="40" as="geometry" />
        </mxCell>
        <mxCell id="g6qgAH0g6jWnOgv-mpRu-619" value="Kurzus felvétele" style="html=1;dashed=0;whitespace=wrap;shape=mxgraph.dfd.process2;align=center;container=1;collapsible=0;spacingTop=30;" parent="g6qgAH0g6jWnOgv-mpRu-616" vertex="1">
          <mxGeometry x="65" y="49.99939999999999" width="160" height="73.2906" as="geometry" />
        </mxCell>
        <mxCell id="g6qgAH0g6jWnOgv-mpRu-620" value="9.1" style="text;html=1;strokeColor=none;fillColor=none;align=center;verticalAlign=middle;whiteSpace=wrap;rounded=0;connectable=0;allowArrows=0;editable=1;movable=0;resizable=0;rotatable=0;deletable=0;locked=0;cloneable=0;" parent="g6qgAH0g6jWnOgv-mpRu-619" vertex="1">
          <mxGeometry width="35" height="30" as="geometry" />
        </mxCell>
        <mxCell id="g6qgAH0g6jWnOgv-mpRu-621" value="" style="text;strokeColor=none;fillColor=none;align=left;verticalAlign=middle;whiteSpace=wrap;rounded=0;autosize=1;connectable=0;allowArrows=0;movable=0;resizable=0;rotatable=0;deletable=0;cloneable=0;spacingLeft=6;fontStyle=0;html=1;" parent="g6qgAH0g6jWnOgv-mpRu-619" vertex="1">
          <mxGeometry x="35" y="-5" width="50" height="40" as="geometry" />
        </mxCell>
        <mxCell id="g6qgAH0g6jWnOgv-mpRu-622" value="Kurzus leadás" style="html=1;dashed=0;whitespace=wrap;shape=mxgraph.dfd.process2;align=center;container=1;collapsible=0;spacingTop=30;" parent="g6qgAH0g6jWnOgv-mpRu-616" vertex="1">
          <mxGeometry x="65" y="218.34999999999994" width="160" height="73.2906" as="geometry" />
        </mxCell>
        <mxCell id="g6qgAH0g6jWnOgv-mpRu-623" value="9.2" style="text;html=1;strokeColor=none;fillColor=none;align=center;verticalAlign=middle;whiteSpace=wrap;rounded=0;connectable=0;allowArrows=0;editable=1;movable=0;resizable=0;rotatable=0;deletable=0;locked=0;cloneable=0;" parent="g6qgAH0g6jWnOgv-mpRu-622" vertex="1">
          <mxGeometry width="35" height="30" as="geometry" />
        </mxCell>
        <mxCell id="g6qgAH0g6jWnOgv-mpRu-624" value="" style="text;strokeColor=none;fillColor=none;align=left;verticalAlign=middle;whiteSpace=wrap;rounded=0;autosize=1;connectable=0;allowArrows=0;movable=0;resizable=0;rotatable=0;deletable=0;cloneable=0;spacingLeft=6;fontStyle=0;html=1;" parent="g6qgAH0g6jWnOgv-mpRu-622" vertex="1">
          <mxGeometry x="35" y="-5" width="50" height="40" as="geometry" />
        </mxCell>
        <mxCell id="g6qgAH0g6jWnOgv-mpRu-625" value="Kurzus adatainak kiíratása" style="html=1;dashed=0;whitespace=wrap;shape=mxgraph.dfd.process2;align=center;container=1;collapsible=0;spacingTop=30;" parent="g6qgAH0g6jWnOgv-mpRu-616" vertex="1">
          <mxGeometry x="65" y="349.99999999999994" width="160" height="73.2906" as="geometry" />
        </mxCell>
        <mxCell id="g6qgAH0g6jWnOgv-mpRu-626" value="9.3" style="text;html=1;strokeColor=none;fillColor=none;align=center;verticalAlign=middle;whiteSpace=wrap;rounded=0;connectable=0;allowArrows=0;editable=1;movable=0;resizable=0;rotatable=0;deletable=0;locked=0;cloneable=0;" parent="g6qgAH0g6jWnOgv-mpRu-625" vertex="1">
          <mxGeometry width="35" height="30" as="geometry" />
        </mxCell>
        <mxCell id="g6qgAH0g6jWnOgv-mpRu-627" value="" style="text;strokeColor=none;fillColor=none;align=left;verticalAlign=middle;whiteSpace=wrap;rounded=0;autosize=1;connectable=0;allowArrows=0;movable=0;resizable=0;rotatable=0;deletable=0;cloneable=0;spacingLeft=6;fontStyle=0;html=1;" parent="g6qgAH0g6jWnOgv-mpRu-625" vertex="1">
          <mxGeometry x="35" y="-5" width="50" height="40" as="geometry" />
        </mxCell>
        <mxCell id="g6qgAH0g6jWnOgv-mpRu-628" value="Hallgató" style="shape=stencil(tZRtjoMgEIZPw98GJR6gYXfvQe10nZQCAbYft99RNKlW7GajiTGZeeXhnZGBCRka5YCVvGHig5VlwTm9Kb5NYhUc1DElr8qjOmhISojenuGGx9gz0DTgMbaq+GR8T9+0j5C1NYYgaE0YKU86wRQaWsvvCdZv/xhFjvgXiOB7kynLyq+/Y3fVNuBiI79j7OB+db/rgceOi61+3Grg4v9YISmTO9xCHlR9/vb2xxxnzYDW6AK8OfLTeZzO66ynzM5CnqyHBUsn1DqN9UITnWoH/kUY5Iu9PtVUzRY1jx4IGk22K9UioSs+44+uvFxl3bKX1nTZdE12iV8=);whiteSpace=wrap;html=1;" parent="1" vertex="1">
          <mxGeometry x="1734.9999999999998" y="5361" width="120" height="80" as="geometry" />
        </mxCell>
        <mxCell id="g6qgAH0g6jWnOgv-mpRu-629" value="" style="endArrow=none;startArrow=classic;html=1;rounded=0;verticalAlign=bottom;entryX=0.55;entryY=1.123;entryDx=0;entryDy=0;entryPerimeter=0;endFill=0;" parent="1" source="g6qgAH0g6jWnOgv-mpRu-625" target="g6qgAH0g6jWnOgv-mpRu-614" edge="1">
          <mxGeometry width="50" height="50" relative="1" as="geometry">
            <mxPoint x="2185" y="5351" as="sourcePoint" />
            <mxPoint x="2095" y="5611" as="targetPoint" />
          </mxGeometry>
        </mxCell>
        <mxCell id="g6qgAH0g6jWnOgv-mpRu-630" value="" style="endArrow=classic;html=1;rounded=0;verticalAlign=bottom;exitX=1.021;exitY=0.582;exitDx=0;exitDy=0;exitPerimeter=0;" parent="1" source="g6qgAH0g6jWnOgv-mpRu-619" target="g6qgAH0g6jWnOgv-mpRu-614" edge="1">
          <mxGeometry width="50" height="50" relative="1" as="geometry">
            <mxPoint x="1894.9999999999998" y="5341" as="sourcePoint" />
            <mxPoint x="2014.9999999999998" y="5341" as="targetPoint" />
          </mxGeometry>
        </mxCell>
        <mxCell id="g6qgAH0g6jWnOgv-mpRu-631" value="Felhasználó kód, Kurzus kód" style="endArrow=none;html=1;rounded=0;verticalAlign=bottom;edgeStyle=orthogonalEdgeStyle;startArrow=classic;startFill=1;exitX=0.005;exitY=0.645;exitDx=0;exitDy=0;exitPerimeter=0;endFill=0;" parent="1" source="g6qgAH0g6jWnOgv-mpRu-622" target="g6qgAH0g6jWnOgv-mpRu-628" edge="1">
          <mxGeometry x="0.2677" width="50" height="50" relative="1" as="geometry">
            <mxPoint x="1576.4285714285713" y="5591" as="sourcePoint" />
            <mxPoint x="2034.9999999999998" y="5351" as="targetPoint" />
            <Array as="points">
              <mxPoint x="2004.9999999999998" y="5387" />
              <mxPoint x="2004.9999999999998" y="5387" />
            </Array>
            <mxPoint as="offset" />
          </mxGeometry>
        </mxCell>
        <mxCell id="g6qgAH0g6jWnOgv-mpRu-632" value="Kurzus iformációk" style="endArrow=classic;html=1;rounded=0;verticalAlign=bottom;edgeStyle=orthogonalEdgeStyle;exitX=0;exitY=0.579;exitDx=0;exitDy=0;exitPerimeter=0;" parent="1" source="g6qgAH0g6jWnOgv-mpRu-625" target="g6qgAH0g6jWnOgv-mpRu-628" edge="1">
          <mxGeometry x="-0.0171" width="50" height="50" relative="1" as="geometry">
            <mxPoint x="1954.9999999999998" y="5471" as="sourcePoint" />
            <mxPoint x="1584.72" y="5591.72" as="targetPoint" />
            <Array as="points">
              <mxPoint x="2100" y="5521" />
              <mxPoint x="1794.9999999999998" y="5521" />
            </Array>
            <mxPoint as="offset" />
          </mxGeometry>
        </mxCell>
        <mxCell id="g6qgAH0g6jWnOgv-mpRu-633" value="Felhasználó kód, Kurzus kód" style="endArrow=none;html=1;rounded=0;verticalAlign=bottom;edgeStyle=orthogonalEdgeStyle;startArrow=classic;startFill=1;exitX=-0.005;exitY=0.685;exitDx=0;exitDy=0;exitPerimeter=0;endFill=0;" parent="1" source="g6qgAH0g6jWnOgv-mpRu-619" target="g6qgAH0g6jWnOgv-mpRu-628" edge="1">
          <mxGeometry x="-0.3071" width="50" height="50" relative="1" as="geometry">
            <mxPoint x="2121" y="5438" as="sourcePoint" />
            <mxPoint x="1874.9999999999998" y="5438" as="targetPoint" />
            <Array as="points">
              <mxPoint x="1800" y="5221" />
            </Array>
            <mxPoint as="offset" />
          </mxGeometry>
        </mxCell>
        <mxCell id="g6qgAH0g6jWnOgv-mpRu-634" value="" style="endArrow=classic;html=1;rounded=0;verticalAlign=bottom;exitX=0.39;exitY=0.067;exitDx=0;exitDy=0;exitPerimeter=0;entryX=0.995;entryY=0.55;entryDx=0;entryDy=0;entryPerimeter=0;" parent="1" source="g6qgAH0g6jWnOgv-mpRu-635" target="g6qgAH0g6jWnOgv-mpRu-625" edge="1">
          <mxGeometry width="50" height="50" relative="1" as="geometry">
            <mxPoint x="2418.32" y="5571.120000000001" as="sourcePoint" />
            <mxPoint x="2135" y="5551" as="targetPoint" />
          </mxGeometry>
        </mxCell>
        <mxCell id="g6qgAH0g6jWnOgv-mpRu-635" value="Kurzus" style="html=1;dashed=0;whitespace=wrap;shape=mxgraph.dfd.dataStoreID2;align=left;spacingLeft=38;container=1;collapsible=0;flipH=0;" parent="1" vertex="1">
          <mxGeometry x="2375" y="5514.29" width="120" height="30" as="geometry" />
        </mxCell>
        <mxCell id="g6qgAH0g6jWnOgv-mpRu-636" value="L2" style="text;html=1;strokeColor=none;fillColor=none;align=center;verticalAlign=middle;whiteSpace=wrap;rounded=0;connectable=0;allowArrows=0;movable=0;resizable=0;rotatable=0;cloneable=0;deletable=0;" parent="g6qgAH0g6jWnOgv-mpRu-635" vertex="1">
          <mxGeometry x="5" width="30" height="30" as="geometry" />
        </mxCell>
        <mxCell id="g6qgAH0g6jWnOgv-mpRu-637" value="" style="endArrow=classic;html=1;rounded=0;verticalAlign=bottom;" parent="1" source="g6qgAH0g6jWnOgv-mpRu-622" target="g6qgAH0g6jWnOgv-mpRu-614" edge="1">
          <mxGeometry width="50" height="50" relative="1" as="geometry">
            <mxPoint x="2014.9999999999998" y="5451" as="sourcePoint" />
            <mxPoint x="2135" y="5451" as="targetPoint" />
          </mxGeometry>
        </mxCell>
        <mxCell id="g6qgAH0g6jWnOgv-mpRu-645" value="Üzenet olvasása" style="html=1;dashed=0;whitespace=wrap;shape=mxgraph.dfd.process2;align=center;container=1;collapsible=0;spacingTop=30;" parent="1" vertex="1">
          <mxGeometry x="2064.91" y="5831" width="160" height="120" as="geometry" />
        </mxCell>
        <mxCell id="g6qgAH0g6jWnOgv-mpRu-646" value="10" style="text;html=1;strokeColor=none;fillColor=none;align=center;verticalAlign=middle;whiteSpace=wrap;rounded=0;connectable=0;allowArrows=0;editable=1;movable=0;resizable=0;rotatable=0;deletable=0;locked=0;cloneable=0;" parent="g6qgAH0g6jWnOgv-mpRu-645" vertex="1">
          <mxGeometry width="35" height="30" as="geometry" />
        </mxCell>
        <mxCell id="g6qgAH0g6jWnOgv-mpRu-647" value="" style="text;strokeColor=none;fillColor=none;align=left;verticalAlign=middle;whiteSpace=wrap;rounded=0;autosize=1;connectable=0;allowArrows=0;movable=0;resizable=0;rotatable=0;deletable=0;cloneable=0;spacingLeft=6;fontStyle=0;html=1;" parent="g6qgAH0g6jWnOgv-mpRu-645" vertex="1">
          <mxGeometry x="35" y="-5" width="50" height="40" as="geometry" />
        </mxCell>
        <mxCell id="g6qgAH0g6jWnOgv-mpRu-648" value="Üzenet&amp;nbsp; információi" style="endArrow=classic;html=1;rounded=0;verticalAlign=bottom;exitX=-0.02;exitY=0.598;exitDx=0;exitDy=0;exitPerimeter=0;entryX=1;entryY=0.5;entryDx=0;entryDy=0;" parent="1" source="g6qgAH0g6jWnOgv-mpRu-645" target="g6qgAH0g6jWnOgv-mpRu-650" edge="1">
          <mxGeometry x="-0.0008" width="50" height="50" relative="1" as="geometry">
            <mxPoint x="1989.91" y="5881" as="sourcePoint" />
            <mxPoint x="1769.91" y="5711" as="targetPoint" />
            <mxPoint as="offset" />
          </mxGeometry>
        </mxCell>
        <mxCell id="g6qgAH0g6jWnOgv-mpRu-649" value="" style="endArrow=classic;html=1;rounded=0;verticalAlign=bottom;exitX=0.004;exitY=0.539;exitDx=0;exitDy=0;exitPerimeter=0;" parent="1" source="g6qgAH0g6jWnOgv-mpRu-656" target="g6qgAH0g6jWnOgv-mpRu-645" edge="1">
          <mxGeometry width="50" height="50" relative="1" as="geometry">
            <mxPoint x="1989.91" y="5881" as="sourcePoint" />
            <mxPoint x="2109.91" y="5881" as="targetPoint" />
          </mxGeometry>
        </mxCell>
        <mxCell id="g6qgAH0g6jWnOgv-mpRu-650" value="Felhasználó" style="shape=stencil(tZRtjoMgEIZPw98GJR6gYXfvQe10nZQCAbYft99RNKlW7GajiTGZeeXhnZGBCRka5YCVvGHig5VlwTm9Kb5NYhUc1DElr8qjOmhISojenuGGx9gz0DTgMbaq+GR8T9+0j5C1NYYgaE0YKU86wRQaWsvvCdZv/xhFjvgXiOB7kynLyq+/Y3fVNuBiI79j7OB+db/rgceOi61+3Grg4v9YISmTO9xCHlR9/vb2xxxnzYDW6AK8OfLTeZzO66ynzM5CnqyHBUsn1DqN9UITnWoH/kUY5Iu9PtVUzRY1jx4IGk22K9UioSs+44+uvFxl3bKX1nTZdE12iV8=);whiteSpace=wrap;html=1;" parent="1" vertex="1">
          <mxGeometry x="1749.91" y="5861" width="120" height="80" as="geometry" />
        </mxCell>
        <mxCell id="g6qgAH0g6jWnOgv-mpRu-656" value="Üzenet" style="html=1;dashed=0;whitespace=wrap;shape=mxgraph.dfd.dataStoreID2;align=left;spacingLeft=38;container=1;collapsible=0;flipH=0;" parent="1" vertex="1">
          <mxGeometry x="2289.91" y="5876" width="120" height="30" as="geometry" />
        </mxCell>
        <mxCell id="g6qgAH0g6jWnOgv-mpRu-657" value="L15" style="text;html=1;strokeColor=none;fillColor=none;align=center;verticalAlign=middle;whiteSpace=wrap;rounded=0;connectable=0;allowArrows=0;movable=0;resizable=0;rotatable=0;cloneable=0;deletable=0;" parent="g6qgAH0g6jWnOgv-mpRu-656" vertex="1">
          <mxGeometry x="5" width="30" height="30" as="geometry" />
        </mxCell>
        <mxCell id="g6qgAH0g6jWnOgv-mpRu-670" value="Milyen szakon" style="html=1;dashed=0;whitespace=wrap;shape=mxgraph.dfd.dataStoreID;align=left;spacingLeft=33;container=1;collapsible=0;autosize=0;" parent="1" vertex="1">
          <mxGeometry x="2490" y="2690" width="120" height="30" as="geometry" />
        </mxCell>
        <mxCell id="g6qgAH0g6jWnOgv-mpRu-671" value="L16" style="text;html=1;strokeColor=none;fillColor=none;align=center;verticalAlign=middle;whiteSpace=wrap;rounded=0;movable=0;resizable=0;rotatable=0;cloneable=0;deletable=0;allowArrows=0;connectable=0;" parent="g6qgAH0g6jWnOgv-mpRu-670" vertex="1">
          <mxGeometry width="30" height="30" as="geometry" />
        </mxCell>
        <mxCell id="g6qgAH0g6jWnOgv-mpRu-672" value="" style="endArrow=classic;html=1;rounded=0;verticalAlign=bottom;entryX=-0.027;entryY=0.5;entryDx=0;entryDy=0;entryPerimeter=0;" parent="1" source="g6qgAH0g6jWnOgv-mpRu-418" target="g6qgAH0g6jWnOgv-mpRu-670" edge="1">
          <mxGeometry width="50" height="50" relative="1" as="geometry">
            <mxPoint x="2410" y="2800" as="sourcePoint" />
            <mxPoint x="2530" y="2800" as="targetPoint" />
          </mxGeometry>
        </mxCell>
        <mxCell id="ztb9fvJvp5q7oG9ILAFo-1" style="edgeStyle=orthogonalEdgeStyle;rounded=0;orthogonalLoop=1;jettySize=auto;html=1;exitX=0.5;exitY=1;exitDx=0;exitDy=0;" edge="1" parent="1" source="g6qgAH0g6jWnOgv-mpRu-316" target="g6qgAH0g6jWnOgv-mpRu-316">
          <mxGeometry relative="1" as="geometry" />
        </mxCell>
      </root>
    </mxGraphModel>
  </diagram>
</mxfile>
